<svg width="1440" height="116" viewBox="0 0 1440 116" fill="none" xmlns="http://www.w3.org/2000/svg">
<rect x="0.5" y="0.5" width="1439" height="115" stroke="url(#paint0_linear_57_102)"/>
<path d="M-116.208 76L-123.708 43.8H-115.808L-111.558 63.2L-107.158 48.35V43.8H-100.558L-95.0078 63.25L-90.5578 43.8H-82.6578L-90.1078 76H-97.5578L-102.958 57.4L-108.758 76H-116.208ZM-78.5672 76V43.8H-54.8172V50H-70.5172V56.75H-56.6672V63.05H-70.5172V69.8H-54.8172V76H-78.5672ZM-50.9793 76V43.8H-33.9793C-30.746 43.8 -28.3126 44.5667 -26.6793 46.1C-25.0126 47.6333 -24.1793 49.8 -24.1793 52.6C-24.1793 54.3 -24.5126 55.7333 -25.1793 56.9C-25.8126 58.0333 -26.6626 58.9167 -27.7293 59.55C-26.2626 60.0833 -25.1126 60.8667 -24.2793 61.9C-23.446 62.9333 -23.0293 64.4833 -23.0293 66.55C-23.0293 69.6167 -23.9293 71.9667 -25.7293 73.6C-27.5293 75.2 -30.1126 76 -33.4793 76H-50.9793ZM-42.9293 56.9H-36.3793C-34.9793 56.9 -33.9626 56.5833 -33.3293 55.95C-32.696 55.3167 -32.3793 54.4333 -32.3793 53.3C-32.3793 52.0667 -32.696 51.15 -33.3293 50.55C-33.9626 49.9167 -35.1126 49.6 -36.7793 49.6H-42.9293V56.9ZM-42.9293 70.25H-35.5793C-34.1126 70.25 -33.0293 69.95 -32.3293 69.35C-31.596 68.75 -31.2293 67.6833 -31.2293 66.15C-31.2293 64.9167 -31.5793 64 -32.2793 63.4C-32.9793 62.7667 -34.1793 62.45 -35.8793 62.45H-42.9293V70.25ZM-8.69805 76.5C-10.8314 76.5 -12.8314 76.3333 -14.698 76C-16.5314 75.7 -18.1147 75.25 -19.448 74.65V67.8C-17.9814 68.4333 -16.3647 68.95 -14.598 69.35C-12.798 69.75 -11.098 69.95 -9.49805 69.95C-7.49805 69.95 -6.01471 69.7667 -5.04805 69.4C-4.04805 69.0333 -3.54805 68.2333 -3.54805 67C-3.54805 66.1667 -3.79805 65.5 -4.29805 65C-4.76471 64.5 -5.54805 64.0667 -6.64805 63.7C-7.71471 63.3 -9.18138 62.8333 -11.048 62.3C-13.248 61.6333 -14.998 60.9 -16.298 60.1C-17.598 59.2667 -18.5314 58.2667 -19.098 57.1C-19.6647 55.9333 -19.948 54.5 -19.948 52.8C-19.948 49.7333 -18.848 47.3833 -16.648 45.75C-14.448 44.1167 -11.198 43.3 -6.89805 43.3C-5.03138 43.3 -3.21471 43.45 -1.44805 43.75C0.318621 44.0167 1.75195 44.3333 2.85195 44.7V51.6C1.41862 51.0333 -0.0313789 50.6167 -1.49805 50.35C-2.93138 50.0833 -4.33138 49.95 -5.69805 49.95C-7.49805 49.95 -8.96471 50.1167 -10.098 50.45C-11.198 50.7833 -11.748 51.55 -11.748 52.75C-11.748 53.45 -11.548 54.0167 -11.148 54.45C-10.748 54.85 -10.0647 55.2167 -9.09805 55.55C-8.09805 55.8833 -6.74805 56.2833 -5.04805 56.75C-2.41471 57.45 -0.398046 58.3 1.00195 59.3C2.40195 60.2667 3.36862 61.4 3.90195 62.7C4.43529 63.9667 4.70196 65.4 4.70196 67C4.70196 69.8333 3.60196 72.1333 1.40195 73.9C-0.798046 75.6333 -4.16471 76.5 -8.69805 76.5ZM8.78633 76V43.8H16.8363V76H8.78633ZM29.3711 76V50H19.9211V43.8H46.8711V50H37.4211V76H29.3711ZM50.4855 76V43.8H74.2355V50H58.5355V56.75H72.3855V63.05H58.5355V69.8H74.2355V76H50.4855ZM88.3234 76.5C86.1901 76.5 84.1901 76.3333 82.3234 76C80.4901 75.7 78.9068 75.25 77.5734 74.65V67.8C79.0401 68.4333 80.6568 68.95 82.4234 69.35C84.2234 69.75 85.9234 69.95 87.5234 69.95C89.5234 69.95 91.0068 69.7667 91.9734 69.4C92.9734 69.0333 93.4734 68.2333 93.4734 67C93.4734 66.1667 93.2234 65.5 92.7234 65C92.2568 64.5 91.4734 64.0667 90.3734 63.7C89.3068 63.3 87.8401 62.8333 85.9734 62.3C83.7734 61.6333 82.0234 60.9 80.7234 60.1C79.4234 59.2667 78.4901 58.2667 77.9234 57.1C77.3568 55.9333 77.0734 54.5 77.0734 52.8C77.0734 49.7333 78.1734 47.3833 80.3734 45.75C82.5734 44.1167 85.8234 43.3 90.1234 43.3C91.9901 43.3 93.8068 43.45 95.5734 43.75C97.3401 44.0167 98.7734 44.3333 99.8734 44.7V51.6C98.4401 51.0333 96.9901 50.6167 95.5234 50.35C94.0901 50.0833 92.6901 49.95 91.3234 49.95C89.5234 49.95 88.0568 50.1167 86.9234 50.45C85.8234 50.7833 85.2734 51.55 85.2734 52.75C85.2734 53.45 85.4734 54.0167 85.8734 54.45C86.2734 54.85 86.9568 55.2167 87.9234 55.55C88.9234 55.8833 90.2734 56.2833 91.9734 56.75C94.6068 57.45 96.6234 58.3 98.0234 59.3C99.4234 60.2667 100.39 61.4 100.923 62.7C101.457 63.9667 101.723 65.4 101.723 67C101.723 69.8333 100.623 72.1333 98.4234 73.9C96.2234 75.6333 92.8568 76.5 88.3234 76.5Z" fill="url(#paint1_linear_57_102)"/>
<circle cx="163" cy="58" r="7.5" fill="#FEDA59"/>
<path d="M225.181 76V43.8H248.931V50H233.231V56.75H247.081V63.05H233.231V69.8H248.931V76H225.181ZM252.769 76V43.8H266.719C269.985 43.8 272.735 44.35 274.969 45.45C277.202 46.5167 278.902 48.25 280.069 50.65C281.235 53.0167 281.819 56.1667 281.819 60.1C281.819 65.6333 280.535 69.6667 277.969 72.2C275.435 74.7333 271.685 76 266.719 76H252.769ZM260.819 69.8H265.619C267.352 69.8 268.802 69.55 269.969 69.05C271.169 68.5167 272.069 67.55 272.669 66.15C273.302 64.75 273.619 62.7333 273.619 60.1C273.619 57.4333 273.335 55.3833 272.769 53.95C272.235 52.4833 271.369 51.4667 270.169 50.9C269.002 50.3 267.485 50 265.619 50H260.819V69.8ZM285.923 76V43.8H293.973V76H285.923ZM306.508 76V50H297.058V43.8H324.008V50H314.558V76H306.508ZM327.622 76V43.8H335.672V76H327.622ZM340.757 76V43.8H347.657L361.357 63.05V43.8H369.457V76H362.507L348.807 56.8V76H340.757ZM390.596 76.5C385.029 76.5 380.796 75.1 377.896 72.3C374.996 69.4667 373.546 65.4833 373.546 60.35C373.546 54.9833 375.029 50.8 377.996 47.8C380.963 44.8 385.329 43.3 391.096 43.3C393.063 43.3 394.829 43.4167 396.396 43.65C397.996 43.8833 399.513 44.2333 400.946 44.7V51.6C399.513 51.0667 398.013 50.7 396.446 50.5C394.913 50.3 393.329 50.2 391.696 50.2C388.229 50.2 385.696 51.0333 384.096 52.7C382.529 54.3333 381.746 56.8833 381.746 60.35C381.746 63.5167 382.496 65.8667 383.996 67.4C385.496 68.9 387.713 69.65 390.646 69.65C392.579 69.65 394.379 69.3833 396.046 68.85V62.75H389.096V57.7H402.796V73.65C401.663 74.3833 400.079 75.05 398.046 75.65C396.046 76.2167 393.563 76.5 390.596 76.5Z" fill="white"/>
<circle cx="464" cy="58" r="7.5" fill="#FEDA59"/>
<path d="M532.921 76L525.421 43.8H533.321L537.571 63.2L541.971 48.35V43.8H548.571L554.121 63.25L558.571 43.8H566.471L559.021 76H551.571L546.171 57.4L540.371 76H532.921ZM570.562 76V43.8H594.312V50H578.612V56.75H592.462V63.05H578.612V69.8H594.312V76H570.562ZM598.15 76V43.8H615.15C618.383 43.8 620.816 44.5667 622.45 46.1C624.116 47.6333 624.95 49.8 624.95 52.6C624.95 54.3 624.616 55.7333 623.95 56.9C623.316 58.0333 622.466 58.9167 621.4 59.55C622.866 60.0833 624.016 60.8667 624.85 61.9C625.683 62.9333 626.1 64.4833 626.1 66.55C626.1 69.6167 625.2 71.9667 623.4 73.6C621.6 75.2 619.016 76 615.65 76H598.15ZM606.2 56.9H612.75C614.15 56.9 615.166 56.5833 615.8 55.95C616.433 55.3167 616.75 54.4333 616.75 53.3C616.75 52.0667 616.433 51.15 615.8 50.55C615.166 49.9167 614.016 49.6 612.35 49.6H606.2V56.9ZM606.2 70.25H613.55C615.016 70.25 616.1 69.95 616.8 69.35C617.533 68.75 617.9 67.6833 617.9 66.15C617.9 64.9167 617.55 64 616.85 63.4C616.15 62.7667 614.95 62.45 613.25 62.45H606.2V70.25ZM639.923 76L652.223 43.8H660.923L673.223 76H664.823L661.923 68.7H651.173L648.323 76H639.923ZM652.273 62.75H660.823L656.523 51.55L652.273 62.75ZM677.3 76V43.8H693.15C695.717 43.8 697.833 44.3167 699.5 45.35C701.167 46.35 702.4 47.7167 703.2 49.45C704.033 51.1833 704.45 53.1333 704.45 55.3C704.45 57.5 703.983 59.45 703.05 61.15C702.117 62.85 700.783 64.1833 699.05 65.15C697.35 66.0833 695.317 66.55 692.95 66.55H685.35V76H677.3ZM685.35 60.35H691.15C692.85 60.35 694.117 59.8833 694.95 58.95C695.817 58.0167 696.25 56.7833 696.25 55.25C696.25 53.5833 695.85 52.3 695.05 51.4C694.283 50.4667 693.067 50 691.4 50H685.35V60.35ZM707.622 76V43.8H723.472C726.039 43.8 728.156 44.3167 729.822 45.35C731.489 46.35 732.722 47.7167 733.522 49.45C734.356 51.1833 734.772 53.1333 734.772 55.3C734.772 57.5 734.306 59.45 733.372 61.15C732.439 62.85 731.106 64.1833 729.372 65.15C727.672 66.0833 725.639 66.55 723.272 66.55H715.672V76H707.622ZM715.672 60.35H721.472C723.172 60.35 724.439 59.8833 725.272 58.95C726.139 58.0167 726.572 56.7833 726.572 55.25C726.572 53.5833 726.172 52.3 725.372 51.4C724.606 50.4667 723.389 50 721.722 50H715.672V60.35ZM748.195 76.5C746.061 76.5 744.061 76.3333 742.195 76C740.361 75.7 738.778 75.25 737.445 74.65V67.8C738.911 68.4333 740.528 68.95 742.295 69.35C744.095 69.75 745.795 69.95 747.395 69.95C749.395 69.95 750.878 69.7667 751.845 69.4C752.845 69.0333 753.345 68.2333 753.345 67C753.345 66.1667 753.095 65.5 752.595 65C752.128 64.5 751.345 64.0667 750.245 63.7C749.178 63.3 747.711 62.8333 745.845 62.3C743.645 61.6333 741.895 60.9 740.595 60.1C739.295 59.2667 738.361 58.2667 737.795 57.1C737.228 55.9333 736.945 54.5 736.945 52.8C736.945 49.7333 738.045 47.3833 740.245 45.75C742.445 44.1167 745.695 43.3 749.995 43.3C751.861 43.3 753.678 43.45 755.445 43.75C757.211 44.0167 758.645 44.3333 759.745 44.7V51.6C758.311 51.0333 756.861 50.6167 755.395 50.35C753.961 50.0833 752.561 49.95 751.195 49.95C749.395 49.95 747.928 50.1167 746.795 50.45C745.695 50.7833 745.145 51.55 745.145 52.75C745.145 53.45 745.345 54.0167 745.745 54.45C746.145 54.85 746.828 55.2167 747.795 55.55C748.795 55.8833 750.145 56.2833 751.845 56.75C754.478 57.45 756.495 58.3 757.895 59.3C759.295 60.2667 760.261 61.4 760.795 62.7C761.328 63.9667 761.595 65.4 761.595 67C761.595 69.8333 760.495 72.1333 758.295 73.9C756.095 75.6333 752.728 76.5 748.195 76.5Z" fill="white"/>
<circle cx="823" cy="58" r="7.5" fill="#FEDA59"/>
<path d="M901.145 76.5C895.578 76.5 891.345 75.1 888.445 72.3C885.545 69.4667 884.095 65.4833 884.095 60.35C884.095 54.9833 885.578 50.8 888.545 47.8C891.512 44.8 895.878 43.3 901.645 43.3C903.612 43.3 905.378 43.4167 906.945 43.65C908.545 43.8833 910.062 44.2333 911.495 44.7V51.6C910.062 51.0667 908.562 50.7 906.995 50.5C905.462 50.3 903.878 50.2 902.245 50.2C898.778 50.2 896.245 51.0333 894.645 52.7C893.078 54.3333 892.295 56.8833 892.295 60.35C892.295 63.5167 893.045 65.8667 894.545 67.4C896.045 68.9 898.262 69.65 901.195 69.65C903.128 69.65 904.928 69.3833 906.595 68.85V62.75H899.645V57.7H913.345V73.65C912.212 74.3833 910.628 75.05 908.595 75.65C906.595 76.2167 904.112 76.5 901.145 76.5ZM917.468 76V43.8H933.568C937.368 43.8 940.168 44.8 941.968 46.8C943.768 48.8 944.668 51.4833 944.668 54.85C944.668 57.0167 944.118 58.9167 943.018 60.55C941.918 62.1833 940.418 63.4 938.518 64.2C938.985 64.5667 939.351 64.9833 939.618 65.45C939.918 65.8833 940.235 66.5 940.568 67.3L944.368 76H935.968L932.368 67.8C932.068 67.1 931.685 66.6 931.218 66.3C930.751 65.9667 930.085 65.8 929.218 65.8H925.518V76H917.468ZM925.518 59.6H931.468C933.035 59.6 934.251 59.2167 935.118 58.45C936.018 57.65 936.468 56.45 936.468 54.85C936.468 51.6167 934.918 50 931.818 50H925.518V59.6ZM945.521 76L957.821 43.8H966.521L978.821 76H970.421L967.521 68.7H956.771L953.921 76H945.521ZM957.871 62.75H966.421L962.121 51.55L957.871 62.75ZM982.898 76V43.8H998.748C1001.31 43.8 1003.43 44.3167 1005.1 45.35C1006.76 46.35 1008 47.7167 1008.8 49.45C1009.63 51.1833 1010.05 53.1333 1010.05 55.3C1010.05 57.5 1009.58 59.45 1008.65 61.15C1007.71 62.85 1006.38 64.1833 1004.65 65.15C1002.95 66.0833 1000.91 66.55 998.548 66.55H990.948V76H982.898ZM990.948 60.35H996.748C998.448 60.35 999.714 59.8833 1000.55 58.95C1001.41 58.0167 1001.85 56.7833 1001.85 55.25C1001.85 53.5833 1001.45 52.3 1000.65 51.4C999.881 50.4667 998.664 50 996.998 50H990.948V60.35ZM1013.22 76V43.8H1021.27V56.55H1033.87V43.8H1041.92V76H1033.87V63.25H1021.27V76H1013.22ZM1047.01 76V43.8H1055.06V76H1047.01ZM1076.44 76.5C1070.81 76.5 1066.51 75.0667 1063.54 72.2C1060.61 69.3 1059.14 65.2833 1059.14 60.15C1059.14 54.7833 1060.58 50.6333 1063.44 47.7C1066.34 44.7667 1070.66 43.3 1076.39 43.3C1078.36 43.3 1080.11 43.45 1081.64 43.75C1083.21 44.05 1084.71 44.45 1086.14 44.95V52C1083.24 50.8 1080.19 50.2 1076.99 50.2C1073.66 50.2 1071.21 51 1069.64 52.6C1068.11 54.2 1067.34 56.7167 1067.34 60.15C1067.34 63.4167 1068.16 65.8167 1069.79 67.35C1071.43 68.8833 1073.86 69.65 1077.09 69.65C1078.66 69.65 1080.21 69.5167 1081.74 69.25C1083.28 68.95 1084.76 68.5 1086.19 67.9V75C1084.79 75.4667 1083.31 75.8333 1081.74 76.1C1080.18 76.3667 1078.41 76.5 1076.44 76.5ZM1100.52 76.5C1098.39 76.5 1096.39 76.3333 1094.52 76C1092.69 75.7 1091.1 75.25 1089.77 74.65V67.8C1091.24 68.4333 1092.85 68.95 1094.62 69.35C1096.42 69.75 1098.12 69.95 1099.72 69.95C1101.72 69.95 1103.2 69.7667 1104.17 69.4C1105.17 69.0333 1105.67 68.2333 1105.67 67C1105.67 66.1667 1105.42 65.5 1104.92 65C1104.45 64.5 1103.67 64.0667 1102.57 63.7C1101.5 63.3 1100.04 62.8333 1098.17 62.3C1095.97 61.6333 1094.22 60.9 1092.92 60.1C1091.62 59.2667 1090.69 58.2667 1090.12 57.1C1089.55 55.9333 1089.27 54.5 1089.27 52.8C1089.27 49.7333 1090.37 47.3833 1092.57 45.75C1094.77 44.1167 1098.02 43.3 1102.32 43.3C1104.19 43.3 1106 43.45 1107.77 43.75C1109.54 44.0167 1110.97 44.3333 1112.07 44.7V51.6C1110.64 51.0333 1109.19 50.6167 1107.72 50.35C1106.29 50.0833 1104.89 49.95 1103.52 49.95C1101.72 49.95 1100.25 50.1167 1099.12 50.45C1098.02 50.7833 1097.47 51.55 1097.47 52.75C1097.47 53.45 1097.67 54.0167 1098.07 54.45C1098.47 54.85 1099.15 55.2167 1100.12 55.55C1101.12 55.8833 1102.47 56.2833 1104.17 56.75C1106.8 57.45 1108.82 58.3 1110.22 59.3C1111.62 60.2667 1112.59 61.4 1113.12 62.7C1113.65 63.9667 1113.92 65.4 1113.92 67C1113.92 69.8333 1112.82 72.1333 1110.62 73.9C1108.42 75.6333 1105.05 76.5 1100.52 76.5Z" fill="white"/>
<circle cx="1175" cy="58" r="7.5" fill="#FEDA59"/>
<path d="M1236.43 76L1248.73 43.8H1257.43L1269.73 76H1261.33L1258.43 68.7H1247.68L1244.83 76H1236.43ZM1248.78 62.75H1257.33L1253.03 51.55L1248.78 62.75ZM1273.81 76V43.8H1280.71L1294.41 63.05V43.8H1302.51V76H1295.56L1281.86 56.8V76H1273.81ZM1307.6 76V43.8H1315.65V76H1307.6ZM1320.73 76V43.8H1328.68L1337.43 61.65L1346.13 43.8H1354.03V76H1345.98V57.5L1339.63 70.5H1335.18L1328.78 57.5V76H1320.73ZM1358.11 76L1370.41 43.8H1379.11L1391.41 76H1383.01L1380.11 68.7H1369.36L1366.51 76H1358.11ZM1370.46 62.75H1379.01L1374.71 51.55L1370.46 62.75ZM1398.69 76V50H1389.24V43.8H1416.19V50H1406.74V76H1398.69ZM1419.8 76V43.8H1427.85V76H1419.8ZM1447.99 76.5C1442.76 76.5 1438.77 75.1667 1436.04 72.5C1433.31 69.8333 1431.94 65.6833 1431.94 60.05C1431.94 54.0833 1433.31 49.8 1436.04 47.2C1438.77 44.6 1442.76 43.3 1447.99 43.3C1453.22 43.3 1457.21 44.6 1459.94 47.2C1462.67 49.8 1464.04 54.0833 1464.04 60.05C1464.04 65.6833 1462.67 69.8333 1459.94 72.5C1457.21 75.1667 1453.22 76.5 1447.99 76.5ZM1447.99 69.65C1450.69 69.65 1452.66 68.8833 1453.89 67.35C1455.16 65.7833 1455.79 63.35 1455.79 60.05C1455.79 56.45 1455.16 53.9167 1453.89 52.45C1452.66 50.95 1450.69 50.2 1447.99 50.2C1445.26 50.2 1443.26 50.95 1441.99 52.45C1440.76 53.9167 1440.14 56.45 1440.14 60.05C1440.14 63.35 1440.76 65.7833 1441.99 67.35C1443.26 68.8833 1445.26 69.65 1447.99 69.65ZM1468.14 76V43.8H1475.04L1488.74 63.05V43.8H1496.84V76H1489.89L1476.19 56.8V76H1468.14ZM1512.18 76.5C1510.05 76.5 1508.05 76.3333 1506.18 76C1504.35 75.7 1502.77 75.25 1501.43 74.65V67.8C1502.9 68.4333 1504.52 68.95 1506.28 69.35C1508.08 69.75 1509.78 69.95 1511.38 69.95C1513.38 69.95 1514.87 69.7667 1515.83 69.4C1516.83 69.0333 1517.33 68.2333 1517.33 67C1517.33 66.1667 1517.08 65.5 1516.58 65C1516.12 64.5 1515.33 64.0667 1514.23 63.7C1513.17 63.3 1511.7 62.8333 1509.83 62.3C1507.63 61.6333 1505.88 60.9 1504.58 60.1C1503.28 59.2667 1502.35 58.2667 1501.78 57.1C1501.22 55.9333 1500.93 54.5 1500.93 52.8C1500.93 49.7333 1502.03 47.3833 1504.23 45.75C1506.43 44.1167 1509.68 43.3 1513.98 43.3C1515.85 43.3 1517.67 43.45 1519.43 43.75C1521.2 44.0167 1522.63 44.3333 1523.73 44.7V51.6C1522.3 51.0333 1520.85 50.6167 1519.38 50.35C1517.95 50.0833 1516.55 49.95 1515.18 49.95C1513.38 49.95 1511.92 50.1167 1510.78 50.45C1509.68 50.7833 1509.13 51.55 1509.13 52.75C1509.13 53.45 1509.33 54.0167 1509.73 54.45C1510.13 54.85 1510.82 55.2167 1511.78 55.55C1512.78 55.8833 1514.13 56.2833 1515.83 56.75C1518.47 57.45 1520.48 58.3 1521.88 59.3C1523.28 60.2667 1524.25 61.4 1524.78 62.7C1525.32 63.9667 1525.58 65.4 1525.58 67C1525.58 69.8333 1524.48 72.1333 1522.28 73.9C1520.08 75.6333 1516.72 76.5 1512.18 76.5Z" fill="url(#paint2_linear_57_102)"/>
<defs>
<linearGradient id="paint0_linear_57_102" x1="2.05208e-06" y1="23.3799" x2="1439.89" y2="-5.53161" gradientUnits="userSpaceOnUse">
<stop stop-color="white" stop-opacity="0"/>
<stop offset="0.283585" stop-color="white"/>
<stop offset="0.784414" stop-color="white"/>
<stop offset="1" stop-color="white" stop-opacity="0"/>
</linearGradient>
<linearGradient id="paint1_linear_57_102" x1="91.9303" y1="58" x2="-121.597" y2="58" gradientUnits="userSpaceOnUse">
<stop stop-color="white"/>
<stop offset="1" stop-color="white" stop-opacity="0"/>
</linearGradient>
<linearGradient id="paint2_linear_57_102" x1="1242.54" y1="60.9167" x2="1527.51" y2="58.7727" gradientUnits="userSpaceOnUse">
<stop stop-color="white"/>
<stop offset="1" stop-color="white" stop-opacity="0"/>
</linearGradient>
</defs>
</svg>
