<svg width="219" height="197" viewBox="0 0 219 197" fill="none" xmlns="http://www.w3.org/2000/svg">
<g clip-path="url(#clip0_2_1018)">
<rect x="61" width="183" height="122" transform="rotate(30 61 0)" fill="#111111"/>
<g clip-path="url(#clip1_2_1018)">
<path d="M158.032 148.648C157.754 147.665 157.025 146.871 156.071 146.511C155.116 146.15 154.046 146.263 153.187 146.815C150.233 148.716 147.029 150.181 143.679 151.177C144.803 149.71 145.83 148.173 146.754 146.572C148.528 143.499 149.942 140.1 150.956 136.467C154.285 124.531 152.355 111.697 145.66 101.256C145.077 100.347 144.079 99.7902 142.999 99.7727C141.919 99.7553 140.903 100.28 140.291 101.169C134.094 110.185 124.268 115.969 113.321 117.04C113.176 117.055 113.031 117.071 112.886 117.086C112.587 117.119 112.304 117.15 112.047 117.165C112.007 117.168 111.967 117.171 111.927 117.175C105.041 117.85 98.3369 120.179 92.5375 123.911C86.6412 127.708 81.8864 132.691 78.4054 138.72C76.6321 141.792 75.2185 145.191 74.2034 148.825C68.8581 167.981 77.1437 188.299 94.3524 198.234C115.156 210.245 141.853 203.091 153.864 182.286C159.788 172.027 161.268 160.081 158.032 148.648Z" fill="white" fill-opacity="0.02"/>
<circle cx="114.253" cy="157.763" r="13" transform="rotate(30 114.253 157.763)" fill="#111111"/>
</g>
<rect x="27.8923" y="81.3442" width="48" height="24" transform="rotate(30 27.8923 81.3442)" fill="url(#paint0_linear_2_1018)"/>
<path d="M32.2567 102.296L35.7253 98.1962C35.7397 98.1813 35.7555 98.1789 35.7729 98.1889L36.739 98.7467C36.7563 98.7567 36.7621 98.7716 36.7565 98.7915L34.9078 103.826C34.8974 103.849 34.8825 103.855 34.863 103.844L34.1246 103.418C34.1029 103.405 34.0972 103.387 34.1076 103.364L34.3177 102.835L33.4102 102.311L33.0569 102.758C33.0423 102.778 33.0251 102.783 33.0056 102.772L32.264 102.343C32.2466 102.333 32.2442 102.318 32.2567 102.296ZM35.4023 100.018L35.506 99.748L35.334 99.9783L33.9549 101.676L34.5957 102.046L35.4023 100.018ZM36.086 104.55L35.3379 104.118C35.3162 104.106 35.3116 104.089 35.3241 104.067L37.9795 99.4976C37.9895 99.4803 38.0032 99.4766 38.0206 99.4866L39.3022 100.227C39.7099 100.462 39.9599 100.773 40.0523 101.158C40.1481 101.543 40.0727 101.949 39.826 102.377C39.6457 102.689 39.4268 102.925 39.1692 103.086C38.9107 103.243 38.6454 103.327 38.3733 103.338C38.1012 103.348 37.848 103.286 37.6138 103.151L37.1064 102.858L36.1373 104.536C36.1248 104.558 36.1077 104.563 36.086 104.55ZM38.8458 101.017L38.3346 100.731L37.5721 102.051L38.0796 102.344C38.2205 102.426 38.3819 102.429 38.5636 102.355C38.7466 102.278 38.9006 102.131 39.0258 101.915C39.126 101.741 39.1614 101.572 39.132 101.408C39.1038 101.241 39.0085 101.111 38.8458 101.017ZM39.1827 106.338L38.4346 105.906C38.4129 105.893 38.4083 105.876 38.4208 105.855L41.0762 101.285C41.0862 101.268 41.0999 101.264 41.1172 101.274L42.3988 102.014C42.8065 102.25 43.0566 102.56 43.149 102.946C43.2448 103.331 43.1693 103.737 42.9227 104.164C42.7424 104.477 42.5235 104.713 42.2659 104.874C42.0074 105.031 41.7421 105.115 41.47 105.126C41.1979 105.136 40.9447 105.074 40.7105 104.939L40.2031 104.646L39.234 106.324C39.2215 106.346 39.2044 106.35 39.1827 106.338ZM41.9425 102.805L41.4313 102.518L40.6688 103.839L41.1763 104.132C41.3172 104.213 41.4785 104.217 41.6603 104.143C41.8432 104.066 41.9973 103.919 42.1225 103.702C42.2227 103.529 42.2581 103.36 42.2287 103.196C42.2005 103.029 42.1051 102.899 41.9425 102.805ZM43.6781 108.933L41.5247 107.69C41.5074 107.68 41.505 107.664 41.5175 107.643L44.1626 103.076C44.1751 103.054 44.1922 103.05 44.2139 103.062L44.9555 103.491C44.9772 103.503 44.9818 103.52 44.9693 103.542L42.7787 107.321L44.1513 108.114C44.173 108.126 44.1776 108.143 44.1651 108.165L43.7294 108.92C43.7169 108.941 43.6998 108.946 43.6781 108.933ZM45.5354 110.006L44.771 109.564C44.7559 109.556 44.7533 109.543 44.7633 109.525L45.8628 107.636L46.5246 104.431C46.5303 104.411 46.5418 104.406 46.5592 104.416L47.3008 104.845C47.3225 104.857 47.3305 104.873 47.3248 104.893L46.7812 106.969L48.3169 105.466C48.3313 105.451 48.3471 105.449 48.3645 105.459L49.1126 105.891C49.13 105.901 49.1315 105.913 49.1171 105.928L46.678 108.072L45.5765 109.995C45.5665 110.012 45.5528 110.016 45.5354 110.006Z" fill="white"/>
<path d="M44.8931 58.0323L43.766 57.3815C43.7367 57.3646 43.7315 57.3399 43.7502 57.3074L47.0405 51.6085L45.7426 50.8592C45.7101 50.8404 45.7032 50.8147 45.722 50.7822L46.3769 49.6705C46.3919 49.6445 46.4124 49.639 46.4384 49.654L50.2345 51.8456C50.2702 51.8663 50.2806 51.8896 50.2656 51.9156L49.6205 53.033C49.6017 53.0655 49.5793 53.0743 49.5533 53.0592L48.2408 52.3015L44.9603 58.006C44.9415 58.0385 44.9191 58.0473 44.8931 58.0323ZM49.7284 60.8239L46.4983 58.9591C46.4723 58.944 46.4687 58.9203 46.4875 58.8877L50.4608 52.0283C50.4758 52.0023 50.4963 51.9968 50.5223 52.0118L53.7329 53.8654C53.7589 53.8804 53.7625 53.9042 53.7437 53.9368L53.0986 55.0541C53.0836 55.0801 53.0631 55.0856 53.0371 55.0706L50.9878 53.8874L50.0863 55.4488L52.1356 56.6319C52.1616 56.647 52.1671 56.6675 52.1521 56.6935L51.5083 57.8311C51.4933 57.8571 51.4728 57.8626 51.4467 57.8476L49.3877 56.6588L48.3792 58.4056L50.4383 59.5944C50.4643 59.6094 50.4679 59.6332 50.4491 59.6657L49.7899 60.8074C49.7749 60.8335 49.7544 60.839 49.7284 60.8239ZM52.4385 62.5188C52.0775 62.3103 51.7999 62.0286 51.6058 61.6737C51.415 61.3206 51.32 60.9405 51.3209 60.5333C51.3269 60.1248 51.4388 59.7318 51.6567 59.3545L53.4665 56.2423C53.6806 55.8715 53.9586 55.5853 54.3005 55.3837C54.6443 55.1788 55.0168 55.0708 55.418 55.0595C55.8243 55.0469 56.2096 55.1457 56.5739 55.3561C56.9447 55.5702 57.2233 55.8502 57.4095 56.1963C57.5989 56.5442 57.6916 56.9208 57.6875 57.3261C57.6884 57.73 57.581 58.119 57.365 58.4931L57.1002 58.9518C57.0852 58.9778 57.0646 58.9833 57.0386 58.9683L55.9164 58.3204C55.8904 58.3053 55.8849 58.2848 55.8999 58.2588L56.1647 57.8001C56.2924 57.5789 56.3307 57.3473 56.2796 57.1053C56.2285 56.8633 56.0956 56.6803 55.8809 56.5564C55.6435 56.4193 55.4144 56.3954 55.1936 56.4848C54.9728 56.5742 54.8005 56.7263 54.6765 56.9409L52.8765 60.0588C52.7356 60.3027 52.6917 60.5441 52.7447 60.7829C52.7995 61.0184 52.9294 61.1953 53.1343 61.3136C53.349 61.4375 53.5768 61.4563 53.8175 61.3697C54.0602 61.28 54.2426 61.1294 54.3646 60.9179L54.6323 60.4544C54.6473 60.4284 54.6678 60.4229 54.6938 60.4379L55.8258 61.0915C55.8518 61.1065 55.8573 61.127 55.8423 61.153L55.5747 61.6166C55.3587 61.9906 55.0737 62.2815 54.7196 62.4891C54.3642 62.6916 53.9866 62.801 53.5868 62.8174C53.1889 62.8305 52.8061 62.731 52.4385 62.5188ZM56.3543 64.6494L55.2224 63.9959C55.1963 63.9809 55.1927 63.9571 55.2115 63.9246L59.1848 57.0651C59.1998 57.0391 59.2236 57.0355 59.2561 57.0543L60.3686 57.6966C60.4011 57.7153 60.4099 57.7377 60.3948 57.7638L58.816 60.4758L60.3139 61.3407L61.883 58.623C61.898 58.5969 61.9185 58.5914 61.9446 58.6065L63.057 59.2487C63.0896 59.2675 63.0983 59.2899 63.0833 59.3159L59.1393 66.1923C59.1205 66.2248 59.0948 66.2317 59.0623 66.2129L57.9401 65.565C57.9076 65.5462 57.9007 65.5205 57.9195 65.488L59.6153 62.5507L58.1174 61.6859L56.4215 64.6232C56.4028 64.6557 56.3804 64.6645 56.3543 64.6494ZM61.014 67.3397L60.0137 66.7622C59.9617 66.7321 59.9488 66.6943 59.9751 66.6488L63.8951 59.8367C63.9251 59.7846 63.9662 59.7736 64.0182 59.8037L64.9209 60.3248L64.3358 65.237L66.5152 61.3494C66.5453 61.2974 66.5896 61.2883 66.6481 61.3221L67.6386 61.8939C67.6776 61.9164 67.6821 61.9537 67.6521 62.0058L63.7265 68.8277C63.7039 68.8667 63.6764 68.8768 63.6439 68.858L62.7656 68.351L63.1575 63.672L61.1518 67.3151C61.1217 67.3672 61.0758 67.3754 61.014 67.3397ZM66.354 70.5529C65.9995 70.3482 65.7252 70.0684 65.5311 69.7134C65.3402 69.3604 65.2411 68.98 65.2336 68.5723C65.2312 68.1633 65.3352 67.7766 65.5455 67.4123L67.3835 64.2513C67.5976 63.8805 67.8796 63.5987 68.2294 63.406C68.5778 63.2081 68.9533 63.1062 69.3558 63.1C69.7603 63.0907 70.1381 63.1874 70.4894 63.3902C70.8537 63.6005 71.129 63.8787 71.3152 64.2248C71.5047 64.5727 71.5999 64.9486 71.6009 65.3525C71.607 65.7551 71.504 66.1402 71.2918 66.5077L69.4733 69.68C69.2629 70.0443 68.9826 70.327 68.6323 70.5281C68.2769 70.7306 67.8986 70.8374 67.4974 70.8487C67.0962 70.8599 66.7151 70.7613 66.354 70.5529ZM67.0498 69.3477C67.2515 69.4642 67.4741 69.4842 67.7177 69.408C67.9631 69.3285 68.1449 69.1863 68.2632 68.9813L70.0817 65.8091C70.2094 65.5879 70.2475 65.3605 70.1959 65.1269C70.1443 64.8932 70.0111 64.7144 69.7964 64.5905C69.5915 64.4722 69.3727 64.4456 69.1399 64.5107C68.9071 64.5758 68.725 64.7222 68.5936 64.9499L66.7653 68.1165C66.6395 68.3345 66.6038 68.5654 66.6581 68.8093C66.7143 69.0499 66.8449 69.2294 67.0498 69.3477ZM70.2991 72.7005L69.1671 72.0469C69.1411 72.0319 69.1375 72.0081 69.1563 71.9756L73.1393 65.1218C73.1544 65.0958 73.1749 65.0903 73.2009 65.1053L75.2209 66.2715C75.582 66.48 75.863 66.7594 76.0641 67.1097C76.2652 67.46 76.3698 67.8348 76.3778 68.2341C76.389 68.6353 76.2867 69.0229 76.0707 69.397C75.9299 69.6409 75.7648 69.8405 75.5754 69.9957C75.386 70.151 75.2015 70.2678 75.0218 70.3462C74.8453 70.4265 74.6976 70.4757 74.5787 70.4938C74.7088 71.1023 74.618 71.6766 74.3062 72.2165L73.1328 74.2714C73.114 74.304 73.0884 74.3108 73.0559 74.2921L71.9239 73.6385C71.8979 73.6235 71.8905 73.6062 71.9018 73.5867L73.0962 71.5179C73.2351 71.2772 73.2708 71.0202 73.203 70.7469C73.1353 70.4736 72.9778 70.2656 72.7306 70.1228L72.0719 69.7425L70.3663 72.6742C70.3475 72.7067 70.3251 72.7155 70.2991 72.7005ZM74.5307 67.467L73.672 66.9712L72.7649 68.5423L73.6236 69.0381C73.8286 69.1564 74.0549 69.1851 74.3025 69.1242C74.5534 69.0653 74.7427 68.9252 74.8704 68.704C74.9925 68.4925 75.0196 68.2653 74.9517 68.0223C74.8857 67.776 74.7454 67.5909 74.5307 67.467ZM73.4353 74.4461L78.6382 68.2966C78.6597 68.2743 78.6835 68.2707 78.7095 68.2857L80.1586 69.1224C80.1847 69.1374 80.1934 69.1598 80.1849 69.1896L77.4119 76.742C77.3964 76.7764 77.374 76.7851 77.3447 76.7682L76.2371 76.1288C76.2046 76.11 76.1961 76.0834 76.2116 76.049L76.5268 75.2551L75.1655 74.4692L74.6356 75.1391C74.6136 75.1697 74.5879 75.1766 74.5587 75.1597L73.4462 74.5174C73.4202 74.5024 73.4166 74.4786 73.4353 74.4461ZM78.1536 71.0289L78.3092 70.6243L78.0512 70.9697L75.9825 73.5161L76.9437 74.0711L78.1536 71.0289ZM80.1405 78.3824L79.0134 77.7316C78.9841 77.7147 78.9789 77.69 78.9976 77.6575L82.2879 71.9586L80.99 71.2093C80.9575 71.1905 80.9506 71.1648 80.9694 71.1323L81.6243 70.0206C81.6393 69.9946 81.6598 69.9891 81.6858 70.0041L85.4819 72.1957C85.5176 72.2164 85.528 72.2397 85.513 72.2657L84.8679 73.3831C84.8491 73.4156 84.8267 73.4244 84.8007 73.4093L83.4882 72.6516L80.2077 78.3561C80.1889 78.3886 80.1665 78.3974 80.1405 78.3824ZM85.2783 81.3487L82.0482 79.4838C82.0222 79.4688 82.0186 79.445 82.0374 79.4125L86.0107 72.5531C86.0257 72.5271 86.0462 72.5216 86.0722 72.5366L89.2828 74.3902C89.3088 74.4052 89.3124 74.429 89.2936 74.4615L88.6485 75.5788C88.6335 75.6049 88.613 75.6104 88.587 75.5953L86.5377 74.4122L85.6363 75.9735L87.6855 77.1567C87.7115 77.1717 87.717 77.1922 87.702 77.2183L87.0582 78.3559C87.0432 78.3819 87.0227 78.3874 86.9967 78.3724L84.9376 77.1836L83.9291 78.9303L85.9882 80.1191C86.0142 80.1341 86.0178 80.1579 85.999 80.1904L85.3399 81.3322C85.3248 81.3582 85.3043 81.3637 85.2783 81.3487ZM88.4926 83.1394L93.6954 76.9899C93.717 76.9676 93.7407 76.964 93.7668 76.979L95.2159 77.8157C95.2419 77.8307 95.2507 77.8531 95.2421 77.8829L92.4691 85.4353C92.4536 85.4697 92.4312 85.4784 92.4019 85.4615L91.2944 84.8221C91.2618 84.8033 91.2533 84.7767 91.2689 84.7423L91.5841 83.9484L90.2228 83.1625L89.6929 83.8324C89.6708 83.863 89.6452 83.8699 89.6159 83.853L88.5034 83.2107C88.4774 83.1957 88.4738 83.1719 88.4926 83.1394ZM93.2109 79.7222L93.3664 79.3176L93.1084 79.663L91.0397 82.2094L92.0009 82.7644L93.2109 79.7222ZM94.1536 86.4728L93.1533 85.8953C93.1013 85.8653 93.0884 85.8275 93.1147 85.782L97.0347 78.9698C97.0647 78.9178 97.1058 78.9068 97.1578 78.9368L98.0605 79.458L97.4753 84.3702L99.6548 80.4826C99.6849 80.4305 99.7292 80.4214 99.7877 80.4552L100.778 81.0271C100.817 81.0496 100.822 81.0869 100.792 81.1389L96.8661 87.9608C96.8435 87.9999 96.816 88.01 96.7835 87.9912L95.9052 87.4841L96.2971 82.8052L94.2913 86.4483C94.2613 86.5003 94.2154 86.5085 94.1536 86.4728ZM98.8815 89.2025L97.7495 88.549C97.717 88.5302 97.7101 88.5045 97.7289 88.472L101.702 81.6126C101.717 81.5866 101.738 81.5811 101.764 81.5961L102.886 82.244C102.912 82.259 102.918 82.2796 102.903 82.3056L98.9487 89.1763C98.9299 89.2088 98.9075 89.2175 98.8815 89.2025ZM100.97 90.4082L99.8378 89.7546C99.8118 89.7396 99.8082 89.7158 99.827 89.6833L103.81 82.8295C103.825 82.8035 103.846 82.798 103.872 82.813L105.091 83.5173C105.117 83.5323 105.133 83.5585 105.137 83.5958L105.289 85.4399L106.957 84.6465C106.992 84.6318 107.024 84.6328 107.053 84.6497L108.278 85.3568C108.307 85.3737 108.314 85.3952 108.299 85.4212L104.355 92.2975C104.336 92.33 104.314 92.3388 104.288 92.3238L103.156 91.6702C103.13 91.6552 103.126 91.6314 103.145 91.5989L106.079 86.4945L104.151 87.4111L103.991 85.2888L101.037 90.3819C101.018 90.4145 100.996 90.4232 100.97 90.4082ZM104.857 92.5877L110.06 86.4381C110.082 86.4159 110.106 86.4122 110.132 86.4273L111.581 87.2639C111.607 87.2789 111.616 87.3014 111.607 87.3311L108.834 94.8835C108.818 94.9179 108.796 94.9267 108.767 94.9098L107.659 94.2703C107.627 94.2515 107.618 94.2249 107.634 94.1905L107.949 93.3967L106.588 92.6107L106.058 93.2806C106.036 93.3113 106.01 93.3182 105.981 93.3013L104.868 92.659C104.842 92.644 104.839 92.6202 104.857 92.5877ZM109.576 89.1705L109.731 88.7658L109.473 89.1113L107.405 91.6577L108.366 92.2126L109.576 89.1705ZM111.563 96.5239L110.435 95.8732C110.406 95.8563 110.401 95.8316 110.42 95.7991L113.71 90.1001L112.412 89.3508C112.38 89.332 112.373 89.3064 112.392 89.2739L113.046 88.1621C113.061 88.1361 113.082 88.1306 113.108 88.1456L116.904 90.3373C116.94 90.3579 116.95 90.3813 116.935 90.4073L116.29 91.5246C116.271 91.5572 116.249 91.5659 116.223 91.5509L114.91 90.7931L111.63 96.4977C111.611 96.5302 111.589 96.539 111.563 96.5239ZM116.7 99.4902L113.47 97.6254C113.444 97.6104 113.441 97.5866 113.459 97.5541L117.433 90.6946C117.448 90.6686 117.468 90.6631 117.494 90.6781L120.705 92.5317C120.731 92.5468 120.735 92.5705 120.716 92.6031L120.071 93.7204C120.056 93.7464 120.035 93.7519 120.009 93.7369L117.96 92.5538L117.058 94.1151L119.108 95.2982C119.134 95.3133 119.139 95.3338 119.124 95.3598L118.48 96.4974C118.465 96.5235 118.445 96.529 118.419 96.5139L116.36 95.3251L115.351 97.0719L117.41 98.2607C117.436 98.2757 117.44 98.2995 117.421 98.332L116.762 99.4737C116.747 99.4998 116.726 99.5053 116.7 99.4902ZM119.269 101.103C118.915 100.899 118.64 100.619 118.446 100.264C118.255 99.9109 118.158 99.5314 118.153 99.1256C118.154 98.7185 118.26 98.3327 118.47 97.9684L118.735 97.5098C118.756 97.474 118.782 97.4655 118.815 97.4843L119.937 98.1322C119.963 98.1472 119.966 98.1726 119.945 98.2084L119.68 98.667C119.555 98.885 119.519 99.1159 119.573 99.3598C119.629 99.6004 119.76 99.7799 119.965 99.8982C120.173 100.018 120.396 100.041 120.635 99.9662C120.875 99.8881 121.056 99.7433 121.178 99.5318C121.319 99.2879 121.283 98.9828 121.069 98.6166C121.036 98.554 120.99 98.4756 120.932 98.3812C120.879 98.2854 120.813 98.1738 120.735 98.0463C120.657 97.9187 120.581 97.7947 120.507 97.6742C120.436 97.5504 120.365 97.4318 120.296 97.3182C120.056 96.8932 119.939 96.4681 119.946 96.0427C119.959 95.616 120.081 95.201 120.314 94.7977C120.528 94.4269 120.813 94.1444 121.167 93.9503C121.521 93.7595 121.893 93.6624 122.285 93.659C122.683 93.6542 123.054 93.7514 123.399 93.9505C123.753 94.1552 124.028 94.4308 124.223 94.7773C124.415 95.1271 124.514 95.5008 124.519 95.8982C124.527 96.2975 124.425 96.6809 124.212 97.0485L123.739 97.8682C123.724 97.8942 123.704 97.8997 123.678 97.8847L122.555 97.2368C122.529 97.2217 122.524 97.2012 122.539 97.1752L123.002 96.3498C123.138 96.1156 123.174 95.8831 123.112 95.6522C123.051 95.4213 122.919 95.2477 122.717 95.1312C122.512 95.0129 122.291 94.9896 122.055 95.0612C121.818 95.1328 121.638 95.276 121.514 95.4907C121.388 95.7086 121.329 95.917 121.335 96.116C121.345 96.3168 121.435 96.5553 121.605 96.8314C121.624 96.8594 121.665 96.9267 121.73 97.0332C121.794 97.1397 121.864 97.2584 121.94 97.3892C122.022 97.5186 122.095 97.6365 122.159 97.743C122.225 97.8463 122.265 97.9084 122.279 97.9295C122.504 98.3064 122.634 98.6853 122.67 99.0661C122.71 99.4487 122.616 99.8369 122.388 100.23C122.169 100.611 121.884 100.902 121.533 101.103C121.18 101.302 120.804 101.404 120.407 101.409C120.009 101.414 119.63 101.312 119.269 101.103Z" fill="white"/>
<path d="M41.7389 71.1789L45.2075 67.0793C45.2218 67.0644 45.2377 67.062 45.255 67.072L46.2211 67.6298C46.2384 67.6398 46.2443 67.6547 46.2386 67.6746L44.3899 72.7095C44.3796 72.7324 44.3646 72.7383 44.3451 72.727L43.6067 72.3007C43.5851 72.2882 43.5794 72.2705 43.5897 72.2475L43.7999 71.7183L42.8923 71.1943L42.5391 71.6409C42.5244 71.6614 42.5073 71.6659 42.4878 71.6547L41.7461 71.2265C41.7288 71.2165 41.7264 71.2006 41.7389 71.1789ZM44.8844 68.9008L44.9881 68.6311L44.8161 68.8614L43.437 70.559L44.0778 70.9289L44.8844 68.9008ZM45.881 73.6051L44.6834 72.9223C44.6617 72.9098 44.6571 72.8927 44.6697 72.871L47.325 68.3018C47.3351 68.2845 47.3487 68.2808 47.3661 68.2908L48.6157 69.0036C48.8666 69.1398 49.0574 69.3252 49.1881 69.5596C49.3209 69.7953 49.3881 70.0495 49.3897 70.3222C49.3947 70.594 49.3264 70.8524 49.185 71.0975L48.0807 73.0101C47.933 73.266 47.7359 73.4645 47.4896 73.6057C47.2424 73.7434 46.9784 73.8151 46.6976 73.8207C46.4181 73.8241 46.1459 73.7522 45.881 73.6051ZM48.1556 69.8005L47.6866 69.5385L45.9373 72.5533L46.3505 72.7919C46.5153 72.887 46.6872 72.9097 46.8663 72.8598C47.0455 72.81 47.1814 72.7049 47.274 72.5444L48.382 70.6252C48.4634 70.4843 48.4821 70.3317 48.4381 70.1675C48.3954 70.0012 48.3012 69.8788 48.1556 69.8005ZM49.3479 75.6154L48.5412 75.1496C48.5217 75.1384 48.5171 75.1213 48.5275 75.0983L50.2493 69.9902C50.255 69.9703 50.2687 69.9666 50.2904 69.9792L51.045 70.4149C51.0624 70.4249 51.0682 70.4398 51.0625 70.4597L49.8474 73.8263L52.1424 71.0832C52.1568 71.0683 52.1726 71.0659 52.19 71.0759L52.9349 71.506C52.9587 71.5198 52.9624 71.5334 52.9459 71.547L49.3992 75.6016C49.3846 75.6221 49.3675 75.6267 49.3479 75.6154ZM51.8703 77.1584C51.634 77.022 51.4511 76.8354 51.3217 76.5988C51.1945 76.3634 51.1284 76.1099 51.1234 75.8381C51.1218 75.5654 51.1911 75.3076 51.3313 75.0647L52.5567 72.9574C52.6994 72.7102 52.8873 72.5223 53.1205 72.3939C53.3528 72.262 53.6032 72.194 53.8715 72.1899C54.1411 72.1836 54.3931 72.2481 54.6273 72.3833C54.8701 72.5235 55.0536 72.709 55.1778 72.9397C55.3041 73.1717 55.3676 73.4223 55.3682 73.6916C55.3723 73.9599 55.3036 74.2166 55.1622 74.4617L53.9498 76.5765C53.8096 76.8194 53.6227 77.0078 53.3892 77.1419C53.1522 77.2769 52.9 77.3481 52.6326 77.3556C52.3651 77.3631 52.111 77.2974 51.8703 77.1584ZM52.3342 76.355C52.4687 76.4326 52.6171 76.446 52.7794 76.3952C52.943 76.3422 53.0643 76.2474 53.1431 76.1108L54.3555 73.9959C54.4406 73.8485 54.466 73.6969 54.4316 73.5411C54.3972 73.3853 54.3084 73.2661 54.1653 73.1835C54.0286 73.1046 53.8828 73.0869 53.7276 73.1303C53.5724 73.1737 53.451 73.2713 53.3633 73.4231L52.1445 75.5342C52.0606 75.6795 52.0368 75.8334 52.073 75.996C52.1105 76.1565 52.1976 76.2761 52.3342 76.355ZM54.5069 78.5939L53.7522 78.1582C53.7306 78.1457 53.726 78.1286 53.7385 78.1069L56.3874 73.534C56.3974 73.5166 56.4111 73.513 56.4284 73.523L57.1765 73.9549C57.1939 73.9649 57.1976 73.9786 57.1875 73.996L54.5517 78.5764C54.5392 78.5981 54.5242 78.6039 54.5069 78.5939ZM56.5399 79.7677L55.7885 79.3338C55.769 79.3226 55.7655 79.3061 55.778 79.2844L57.9715 75.4851L57.1063 74.9856C57.0846 74.9731 57.08 74.956 57.0925 74.9343L57.5291 74.1931C57.5391 74.1758 57.5528 74.1721 57.5701 74.1821L60.1008 75.6432C60.1247 75.657 60.1316 75.6726 60.1216 75.6899L59.6915 76.4348C59.679 76.4565 59.6641 76.4623 59.6467 76.4523L58.7717 75.9471L56.5847 79.7502C56.5722 79.7718 56.5572 79.7777 56.5399 79.7677ZM60.7463 82.1876L59.5487 81.5048C59.5271 81.4923 59.5225 81.4752 59.535 81.4535L62.1904 76.8843C62.2004 76.867 62.2141 76.8633 62.2314 76.8733L63.481 77.5861C63.732 77.7223 63.9228 77.9077 64.0534 78.1421C64.1862 78.3778 64.2534 78.632 64.255 78.9047C64.26 79.1765 64.1918 79.4349 64.0503 79.68L62.946 81.5926C62.7983 81.8485 62.6013 82.047 62.355 82.1882C62.1077 82.3259 61.8437 82.3976 61.5629 82.4032C61.2834 82.4066 61.0112 82.3347 60.7463 82.1876ZM63.0209 78.383L62.552 78.121L60.8027 81.1358L61.2158 81.3743C61.3806 81.4695 61.5526 81.4922 61.7317 81.4423C61.9108 81.3925 62.0467 81.2874 62.1393 81.1269L63.2474 79.2077C63.3287 79.0668 63.3474 78.9142 63.3034 78.75C63.2607 78.5837 63.1665 78.4613 63.0209 78.383ZM63.4456 83.7547L62.691 83.319C62.6693 83.3065 62.6647 83.2894 62.6772 83.2677L65.3261 78.6947C65.3361 78.6774 65.3498 78.6737 65.3671 78.6837L66.1153 79.1157C66.1326 79.1257 66.1363 79.1394 66.1263 79.1567L63.4904 83.7372C63.4779 83.7589 63.4629 83.7647 63.4456 83.7547ZM65.2394 84.8771C64.9987 84.7381 64.8162 84.5532 64.6921 84.3225C64.5658 84.0906 64.5012 83.8394 64.4984 83.5688C64.4977 83.2995 64.5694 83.0402 64.7134 82.7908L65.9322 80.6798C66.0724 80.4369 66.2598 80.2501 66.4942 80.1195C66.7277 79.9854 66.9776 79.9157 67.2438 79.9104C67.5113 79.9029 67.7621 79.9667 67.9963 80.1019C68.2413 80.2434 68.4287 80.4297 68.5584 80.6607C68.6869 80.8939 68.751 81.1434 68.7508 81.4093C68.7527 81.6764 68.6817 81.9347 68.5377 82.184L68.3612 82.4898C68.3511 82.5072 68.3353 82.5096 68.3136 82.497L67.5655 82.0651C67.5481 82.0551 67.5444 82.0414 67.5545 82.0241L67.7009 81.7703C67.7986 81.6012 67.8316 81.4338 67.8001 81.2681C67.7685 81.1024 67.6812 80.9783 67.5381 80.8956C67.4101 80.8218 67.2656 80.8092 67.1045 80.8578C66.9434 80.9065 66.8215 81.0024 66.7389 81.1455L65.5201 83.2566C65.4362 83.4019 65.4124 83.5558 65.4486 83.7184C65.4861 83.8788 65.571 83.9972 65.7032 84.0736C65.8464 84.1562 65.9951 84.1741 66.1493 84.1273C66.3048 84.0783 66.4258 83.979 66.5122 83.8294L66.7018 83.5008L66.2367 83.2323C66.2128 83.2185 66.2072 83.2008 66.2197 83.1791L66.6498 82.4342C66.6623 82.4125 66.6805 82.4086 66.7043 82.4223L67.9501 83.1416C67.9675 83.1516 67.9699 83.1675 67.9574 83.1892L67.3189 84.2951C67.1749 84.5445 66.9861 84.7362 66.7526 84.8703C66.5169 85.0031 66.267 85.0728 66.003 85.0794C65.739 85.086 65.4844 85.0185 65.2394 84.8771ZM67.8434 86.2937L67.0887 85.858C67.0671 85.8455 67.0625 85.8284 67.075 85.8067L69.7239 81.2338C69.7339 81.2165 69.7476 81.2128 69.7649 81.2228L70.5131 81.6547C70.5304 81.6648 70.5341 81.6784 70.524 81.6958L67.8882 86.2762C67.8757 86.2979 67.8607 86.3038 67.8434 86.2937ZM69.8764 87.4675L69.125 87.0337C69.1055 87.0224 69.102 87.0059 69.1145 86.9843L71.308 83.185L70.4428 82.6854C70.4211 82.6729 70.4165 82.6558 70.429 82.6341L70.8656 81.893C70.8756 81.8756 70.8893 81.872 70.9066 81.882L73.4373 83.3431C73.4612 83.3568 73.4681 83.3724 73.4581 83.3898L73.028 84.1346C73.0155 84.1563 73.0006 84.1622 72.9832 84.1521L72.1082 83.647L69.9212 87.45C69.9087 87.4717 69.8937 87.4775 69.8764 87.4675ZM70.9166 88.0247L74.3851 83.925C74.3995 83.9101 74.4153 83.9077 74.4327 83.9177L75.3988 84.4755C75.4161 84.4855 75.4219 84.5005 75.4163 84.5203L73.5676 89.5552C73.5572 89.5782 73.5423 89.584 73.5228 89.5728L72.7844 89.1464C72.7627 89.1339 72.7571 89.1162 72.7674 89.0933L72.9775 88.564L72.07 88.0401L71.7167 88.4867C71.7021 88.5071 71.685 88.5117 71.6654 88.5004L70.9238 88.0722C70.9065 88.0622 70.904 88.0464 70.9166 88.0247ZM74.0621 85.7465L74.1658 85.4768L73.9938 85.7071L72.6147 87.4047L73.2555 87.7747L74.0621 85.7465ZM76.1446 91.0864L73.9912 89.8432C73.9739 89.8332 73.9714 89.8173 73.984 89.7956L76.6291 85.2292C76.6416 85.2075 76.6587 85.2029 76.6804 85.2154L77.422 85.6436C77.4437 85.6562 77.4483 85.6733 77.4358 85.6949L75.2451 89.4742L76.6178 90.2667C76.6395 90.2792 76.6441 90.2963 76.6316 90.318L76.1959 91.0727C76.1833 91.0944 76.1662 91.0989 76.1446 91.0864ZM78.1378 92.1938L81.6064 88.0942C81.6207 88.0793 81.6366 88.0769 81.6539 88.0869L82.62 88.6447C82.6373 88.6547 82.6432 88.6696 82.6375 88.6895L80.7888 93.7244C80.7785 93.7474 80.7635 93.7532 80.744 93.7419L80.0056 93.3156C79.9839 93.3031 79.9783 93.2854 79.9886 93.2624L80.1988 92.7332L79.2912 92.2092L78.938 92.6558C78.9233 92.6763 78.9062 92.6809 78.8867 92.6696L78.145 92.2414C78.1277 92.2314 78.1253 92.2155 78.1378 92.1938ZM81.2833 89.9157L81.387 89.646L81.215 89.8763L79.8359 91.5739L80.4767 91.9438L81.2833 89.9157ZM82.232 94.6878C81.9913 94.5488 81.8089 94.364 81.6848 94.1333C81.5585 93.9013 81.4939 93.6501 81.491 93.3795C81.4904 93.1103 81.562 92.8509 81.706 92.6015L82.9248 90.4905C83.0651 90.2476 83.2524 90.0608 83.4869 89.9302C83.7204 89.7961 83.9703 89.7264 84.2365 89.7211C84.5039 89.7136 84.7547 89.7774 84.9889 89.9127C85.234 90.0541 85.4214 90.2404 85.5511 90.4714C85.6796 90.7046 85.7437 90.9542 85.7434 91.22C85.7454 91.4871 85.6743 91.7454 85.5303 91.9948L85.3538 92.3005C85.3438 92.3179 85.3279 92.3203 85.3063 92.3078L84.5581 91.8758C84.5408 91.8658 84.5371 91.8521 84.5471 91.8348L84.6936 91.5811C84.7913 91.4119 84.8243 91.2445 84.7927 91.0788C84.7612 90.9131 84.6738 90.789 84.5307 90.7063C84.4028 90.6325 84.2582 90.6199 84.0971 90.6685C83.936 90.7172 83.8142 90.8131 83.7315 90.9562L82.5127 93.0673C82.4288 93.2126 82.405 93.3665 82.4412 93.5291C82.4787 93.6896 82.5636 93.808 82.6959 93.8843C82.839 93.967 82.9877 93.9849 83.142 93.938C83.2975 93.889 83.4184 93.7897 83.5048 93.6401L83.6945 93.3115L83.2294 93.043C83.2055 93.0292 83.1998 93.0115 83.2123 92.9898L83.6424 92.2449C83.6549 92.2232 83.6731 92.2193 83.697 92.233L84.9428 92.9523C84.9601 92.9623 84.9626 92.9782 84.95 92.9999L84.3115 94.1058C84.1675 94.3552 83.9788 94.5469 83.7452 94.681C83.5095 94.8138 83.2597 94.8835 82.9956 94.8901C82.7316 94.8967 82.4771 94.8292 82.232 94.6878ZM86.2283 96.9083L84.0749 95.665C84.0576 95.655 84.0551 95.6391 84.0677 95.6175L86.7165 91.0445C86.7265 91.0272 86.7402 91.0235 86.7576 91.0335L88.8979 92.2692C88.9153 92.2793 88.9177 92.2951 88.9052 92.3168L88.4751 93.0617C88.4651 93.079 88.4514 93.0827 88.434 93.0727L87.0679 92.2839L86.4669 93.3248L87.8331 94.1136C87.8504 94.1236 87.8541 94.1373 87.8441 94.1546L87.4149 94.913C87.4049 94.9304 87.3912 94.9341 87.3738 94.924L86.0012 94.1315L85.3288 95.296L86.7015 96.0885C86.7189 96.0986 86.7213 96.1144 86.7088 96.1361L86.2693 96.8973C86.2593 96.9146 86.2456 96.9183 86.2283 96.9083ZM87.5717 97.6839L86.9048 97.2989C86.8701 97.2788 86.8616 97.2536 86.8791 97.2233L89.4924 92.6819C89.5124 92.6472 89.5398 92.6398 89.5745 92.6599L90.1763 93.0073L89.7862 96.2821L91.2392 93.6904C91.2592 93.6557 91.2887 93.6496 91.3278 93.6721L91.9881 94.0534C92.0141 94.0684 92.0171 94.0932 91.9971 94.1279L89.38 98.6759C89.365 98.7019 89.3466 98.7086 89.3249 98.6961L88.7394 98.3581L89.0007 95.2388L87.6635 97.6675C87.6435 97.7022 87.6129 97.7077 87.5717 97.6839ZM91.1252 99.8222C90.8845 99.6833 90.6994 99.4955 90.57 99.2589C90.4428 99.0235 90.3795 98.7701 90.3801 98.4986C90.3841 98.2263 90.4587 97.9643 90.604 97.7127L91.8105 95.638C91.9532 95.3907 92.1386 95.1999 92.3665 95.0655C92.5957 94.929 92.844 94.8569 93.1115 94.8494C93.3824 94.841 93.6392 94.9069 93.8821 95.0471C94.1293 95.1899 94.315 95.3766 94.4391 95.6073C94.5655 95.8392 94.6272 96.0903 94.6245 96.3605C94.6251 96.6298 94.5535 96.8891 94.4095 97.1385L94.233 97.4442C94.2229 97.4616 94.2093 97.4653 94.1919 97.4552L93.4438 97.0233C93.4264 97.0133 93.4228 96.9996 93.4328 96.9823L93.6093 96.6765C93.6944 96.529 93.72 96.3746 93.6859 96.2133C93.6518 96.0519 93.5632 95.9299 93.4201 95.8473C93.2618 95.7559 93.1091 95.74 92.9619 95.7996C92.8147 95.8592 92.6998 95.9606 92.6172 96.1037L91.4172 98.1822C91.3233 98.3449 91.294 98.5058 91.3293 98.665C91.3659 98.822 91.4524 98.9399 91.5891 99.0188C91.7322 99.1014 91.884 99.1139 92.0445 99.0562C92.2063 98.9964 92.3279 98.896 92.4093 98.755L92.5877 98.446C92.5977 98.4287 92.6114 98.425 92.6287 98.435L93.3834 98.8707C93.4007 98.8807 93.4044 98.8944 93.3944 98.9118L93.216 99.2208C93.072 99.4702 92.882 99.6641 92.6459 99.8025C92.409 99.9374 92.1572 100.01 91.8907 100.021C91.6254 100.03 91.3702 99.9637 91.1252 99.8222ZM94.344 101.594L93.5796 101.153C93.5644 101.144 93.5618 101.131 93.5719 101.113L94.6714 99.224L95.3332 96.0194C95.3389 95.9995 95.3504 95.9946 95.3677 96.0046L96.1094 96.4328C96.1311 96.4453 96.1391 96.4615 96.1334 96.4814L95.5898 98.5572L97.1255 97.0541C97.1399 97.0393 97.1557 97.0369 97.1731 97.0469L97.9212 97.4788C97.9385 97.4889 97.94 97.5013 97.9257 97.5161L95.4866 99.66L94.3851 101.583C94.375 101.6 94.3614 101.604 94.344 101.594Z" fill="white"/>
<rect x="65.3923" y="16.3923" width="48" height="24" transform="rotate(30 65.3923 16.3923)" stroke="white" stroke-width="0.48077"/>
<path d="M67.1195 35.8647L66.3713 35.4327C66.3496 35.4202 66.345 35.4031 66.3576 35.3814L69.0129 30.8123C69.023 30.7949 69.0366 30.7912 69.054 30.8013L71.1878 32.0332C71.2095 32.0457 71.2153 32.0607 71.2053 32.078L70.7715 32.8294C70.7615 32.8468 70.7478 32.8504 70.7305 32.8404L69.3643 32.0517L68.7671 33.0861L70.1333 33.8748C70.1506 33.8848 70.153 33.9007 70.1405 33.9224L69.7113 34.6808C69.7013 34.6981 69.6854 34.7005 69.6638 34.688L68.2976 33.8993L67.1708 35.8509C67.1582 35.8726 67.1411 35.8772 67.1195 35.8647ZM70.3315 37.8059C70.0972 37.6707 69.9155 37.4847 69.7861 37.2481C69.6567 37.0115 69.5912 36.7568 69.5896 36.4841C69.5914 36.2105 69.6625 35.9523 69.8027 35.7094L71.7388 32.386C71.7488 32.3687 71.7625 32.365 71.7798 32.375L72.528 32.807C72.5453 32.817 72.549 32.8307 72.539 32.848L70.6159 36.1789C70.5295 36.3285 70.5033 36.484 70.5374 36.6453C70.5727 36.8045 70.6587 36.9236 70.7953 37.0024C70.9384 37.0851 71.0878 37.1019 71.2433 37.0529C71.4 37.0017 71.5216 36.9013 71.608 36.7517L73.5311 33.4208C73.5411 33.4035 73.5548 33.3998 73.5721 33.4098L74.3203 33.8417C74.3376 33.8518 74.3413 33.8654 74.3313 33.8828L72.4212 37.2212C72.2797 37.4662 72.091 37.6579 71.8549 37.7964C71.618 37.9313 71.3658 38.0026 71.0983 38.0101C70.8321 38.0154 70.5765 37.9473 70.3315 37.8059ZM74.3862 40.0602L72.2329 38.8169C72.2155 38.8069 72.2131 38.791 72.2256 38.7694L74.8707 34.2029C74.8833 34.1812 74.9004 34.1767 74.922 34.1892L75.6637 34.6174C75.6854 34.6299 75.69 34.647 75.6774 34.6687L73.4868 38.4479L74.8595 39.2405C74.8812 39.253 74.8858 39.2701 74.8732 39.2918L74.4375 40.0464C74.425 40.0681 74.4079 40.0727 74.3862 40.0602ZM77.034 41.5889L74.8807 40.3456C74.8633 40.3356 74.8609 40.3197 74.8734 40.2981L77.5185 35.7316C77.531 35.7099 77.5481 35.7054 77.5698 35.7179L78.3115 36.1461C78.3332 36.1586 78.3377 36.1757 78.3252 36.1974L76.1346 39.9766L77.5073 40.7691C77.529 40.7817 77.5335 40.7988 77.521 40.8205L77.0853 41.5751C77.0728 41.5968 77.0557 41.6014 77.034 41.5889ZM78.9239 42.68L78.1725 42.2462C78.153 42.2349 78.1495 42.2184 78.162 42.1967L80.3555 38.3975L79.4903 37.8979C79.4686 37.8854 79.464 37.8683 79.4765 37.8466L79.9131 37.1055C79.9231 37.0881 79.9368 37.0844 79.9541 37.0945L82.4848 38.5555C82.5087 38.5693 82.5156 38.5849 82.5056 38.6022L82.0755 39.3471C82.063 39.3688 82.0481 39.3746 82.0307 39.3646L81.1557 38.8594L78.9687 42.6625C78.9562 42.6842 78.9412 42.69 78.9239 42.68ZM80.9569 43.8537L80.2022 43.418C80.1806 43.4055 80.176 43.3884 80.1885 43.3667L82.8374 38.7938C82.8474 38.7764 82.8611 38.7728 82.8784 38.7828L83.6266 39.2147C83.6439 39.2247 83.6476 39.2384 83.6375 39.2558L81.0017 43.8362C80.9892 43.8579 80.9742 43.8638 80.9569 43.8537ZM82.3491 44.6575L81.5944 44.2218C81.5771 44.2118 81.5747 44.196 81.5872 44.1743L84.2426 39.6051C84.2526 39.5877 84.2663 39.5841 84.2836 39.5941L85.0968 40.0636C85.1142 40.0736 85.1243 40.091 85.1273 40.1159L85.2285 41.3453L86.3406 40.8164C86.3637 40.8066 86.3849 40.8073 86.4044 40.8185L87.2209 41.2899C87.2404 41.3012 87.2452 41.3155 87.2352 41.3329L84.6058 45.9171C84.5933 45.9387 84.5784 45.9446 84.561 45.9346L83.8064 45.4989C83.789 45.4889 83.7866 45.473 83.7991 45.4513L85.7551 42.0484L84.4698 42.6595L84.3629 41.2446L82.3939 44.64C82.3814 44.6617 82.3664 44.6675 82.3491 44.6575ZM87.3259 47.5309L85.1725 46.2876C85.1552 46.2776 85.1528 46.2618 85.1653 46.2401L87.8142 41.6671C87.8242 41.6498 87.8379 41.6461 87.8552 41.6561L89.9955 42.8919C90.0129 42.9019 90.0153 42.9177 90.0028 42.9394L89.5727 43.6843C89.5627 43.7017 89.549 43.7053 89.5317 43.6953L88.1655 42.9065L87.5645 43.9474L88.9307 44.7362C88.9481 44.7462 88.9517 44.7599 88.9417 44.7773L88.5125 45.5357C88.5025 45.553 88.4888 45.5567 88.4715 45.5467L87.0988 44.7541L86.4265 45.9186L87.7991 46.7112C87.8165 46.7212 87.8189 46.737 87.8064 46.7587L87.3669 47.5199C87.3569 47.5372 87.3432 47.5409 87.3259 47.5309Z" fill="white"/>
<rect x="113.024" y="43.8923" width="48" height="24" transform="rotate(30 113.024 43.8923)" stroke="white" stroke-width="0.48077"/>
<path d="M118.884 65.8378C118.648 65.7013 118.465 65.5148 118.336 65.2782C118.208 65.0428 118.142 64.7892 118.137 64.5174C118.136 64.2447 118.205 63.9869 118.345 63.7441L119.57 61.6367C119.713 61.3895 119.901 61.2017 120.134 61.0732C120.367 60.9413 120.617 60.8733 120.885 60.8692C121.155 60.863 121.407 60.9275 121.641 61.0627C121.884 61.2029 122.067 61.3884 122.192 61.6191C122.318 61.851 122.381 62.1016 122.382 62.3709C122.386 62.6393 122.317 62.896 122.176 63.141L120.964 65.2559C120.823 65.4987 120.637 65.6872 120.403 65.8213C120.166 65.9563 119.914 66.0275 119.646 66.035C119.379 66.0425 119.125 65.9768 118.884 65.8378ZM119.348 65.0344C119.482 65.112 119.631 65.1254 119.793 65.0745C119.957 65.0215 120.078 64.9267 120.157 64.7901L121.369 62.6753C121.454 62.5278 121.48 62.3762 121.445 62.2205C121.411 62.0647 121.322 61.9455 121.179 61.8629C121.042 61.784 120.897 61.7663 120.741 61.8097C120.586 61.8531 120.465 61.9507 120.377 62.1025L119.158 64.2136C119.074 64.3589 119.051 64.5128 119.087 64.6754C119.124 64.8358 119.211 64.9555 119.348 65.0344ZM121.459 67.2376L120.792 66.8526C120.757 66.8326 120.749 66.8074 120.766 66.777L123.38 62.2356C123.4 62.2009 123.427 62.1936 123.462 62.2136L124.064 62.561L123.673 65.8358L125.126 63.2441C125.146 63.2094 125.176 63.2033 125.215 63.2258L125.875 63.6071C125.901 63.6221 125.904 63.647 125.884 63.6817L123.267 68.2296C123.252 68.2556 123.234 68.2624 123.212 68.2498L122.627 67.9118L122.888 64.7925L121.551 67.2212C121.531 67.2559 121.5 67.2614 121.459 67.2376ZM124.918 69.3215C124.682 69.185 124.499 68.9985 124.369 68.7619C124.242 68.5265 124.177 68.2735 124.174 68.003C124.175 67.7316 124.245 67.4744 124.386 67.2315L124.562 66.9258C124.576 66.9019 124.594 66.8962 124.615 66.9088L125.363 67.3407C125.381 67.3507 125.383 67.3676 125.369 67.3915L125.192 67.6973C125.108 67.8426 125.085 67.9965 125.121 68.1591C125.158 68.3195 125.245 68.4392 125.382 68.5181C125.521 68.5982 125.67 68.6133 125.829 68.5634C125.989 68.5113 126.11 68.4148 126.191 68.2738C126.285 68.1112 126.261 67.9078 126.118 67.6637C126.096 67.6219 126.065 67.5696 126.027 67.5067C125.991 67.4429 125.947 67.3685 125.895 67.2834C125.843 67.1984 125.793 67.1157 125.744 67.0354C125.696 66.9529 125.649 66.8738 125.603 66.7981C125.443 66.5147 125.365 66.2313 125.37 65.9477C125.378 65.6633 125.459 65.3866 125.615 65.1177C125.757 64.8705 125.947 64.6822 126.184 64.5528C126.419 64.4256 126.668 64.3608 126.929 64.3586C127.194 64.3554 127.441 64.4202 127.671 64.5529C127.908 64.6894 128.091 64.8731 128.22 65.1041C128.349 65.3373 128.415 65.5864 128.418 65.8514C128.423 66.1176 128.355 66.3732 128.214 66.6182L127.898 67.1647C127.888 67.182 127.874 67.1857 127.857 67.1757L127.109 66.7438C127.092 66.7337 127.088 66.7201 127.098 66.7027L127.407 66.1525C127.497 65.9963 127.522 65.8413 127.48 65.6874C127.439 65.5335 127.351 65.4177 127.217 65.3401C127.08 65.2612 126.933 65.2456 126.775 65.2934C126.618 65.3411 126.498 65.4366 126.415 65.5797C126.331 65.725 126.291 65.8639 126.296 65.9966C126.302 66.1305 126.362 66.2895 126.476 66.4735C126.488 66.4922 126.516 66.5371 126.558 66.6081C126.601 66.6791 126.648 66.7582 126.699 66.8454C126.753 66.9316 126.802 67.0103 126.845 67.0813C126.889 67.1501 126.916 67.1915 126.925 67.2056C127.075 67.4569 127.162 67.7095 127.186 67.9633C127.212 68.2184 127.149 68.4772 126.998 68.7396C126.851 68.9933 126.661 69.1872 126.428 69.3212C126.192 69.4541 125.942 69.522 125.677 69.5252C125.412 69.5284 125.159 69.4605 124.918 69.3215ZM127.512 70.7326L126.758 70.2969C126.736 70.2843 126.731 70.2672 126.744 70.2456L129.393 65.6726C129.403 65.6553 129.417 65.6516 129.434 65.6616L130.182 66.0936C130.199 66.1036 130.203 66.1173 130.193 66.1346L127.557 70.7151C127.545 70.7367 127.53 70.7426 127.512 70.7326ZM129.545 71.9063L128.794 71.4725C128.774 71.4612 128.771 71.4448 128.784 71.4231L130.977 67.6238L130.112 67.1242C130.09 67.1117 130.086 67.0946 130.098 67.0729L130.535 66.3318C130.545 66.3144 130.558 66.3108 130.576 66.3208L133.106 67.7819C133.13 67.7957 133.137 67.8112 133.127 67.8286L132.697 68.5735C132.684 68.5951 132.67 68.601 132.652 68.591L131.777 68.0858L129.59 71.8888C129.578 71.9105 129.563 71.9163 129.545 71.9063ZM132.971 73.8839L130.817 72.6406C130.8 72.6306 130.797 72.6148 130.81 72.5931L133.459 68.0201C133.469 68.0028 133.483 67.9991 133.5 68.0091L135.64 69.2449C135.658 69.2549 135.66 69.2707 135.647 69.2924L135.217 70.0373C135.207 70.0546 135.194 70.0583 135.176 70.0483L133.81 69.2595L133.209 70.3004L134.575 71.0892C134.593 71.0992 134.596 71.1129 134.586 71.1302L134.157 71.8887C134.147 71.906 134.134 71.9097 134.116 71.8996L132.743 71.1071L132.071 72.2716L133.444 73.0642C133.461 73.0742 133.464 73.09 133.451 73.1117L133.012 73.8729C133.002 73.8902 132.988 73.8939 132.971 73.8839Z" fill="white"/>
<rect x="161.521" y="71.8923" width="48" height="24" transform="rotate(30 161.521 71.8923)" stroke="white" stroke-width="0.48077"/>
<path d="M167.357 93.7368L166.778 93.4025C166.761 93.3925 166.757 93.3789 166.767 93.3615L166.99 92.9744C166.806 92.7782 166.697 92.5417 166.663 92.2648C166.631 91.9892 166.686 91.7288 166.828 91.4838L166.972 91.2333C166.983 91.2138 166.998 91.2091 167.015 91.2191L167.623 91.5703C167.636 91.5778 167.637 91.5913 167.626 91.6108L167.481 91.8613C167.414 91.9784 167.396 92.1041 167.428 92.2384C167.461 92.3727 167.532 92.4718 167.643 92.5357C167.758 92.602 167.879 92.6144 168.007 92.5727C168.136 92.531 168.23 92.4571 168.292 92.3508C168.372 92.212 168.353 92.0438 168.236 91.846C168.198 91.7775 168.135 91.6733 168.048 91.5335C167.963 91.3949 167.884 91.2667 167.81 91.149C167.67 90.9117 167.604 90.6745 167.614 90.4372C167.624 90.2 167.694 89.9686 167.824 89.7431C167.968 89.4937 168.165 89.3181 168.414 89.2164C168.666 89.116 168.919 89.0958 169.173 89.156L169.397 88.7689C169.407 88.7516 169.422 88.7485 169.441 88.7598L170.02 89.0941C170.042 89.1066 170.048 89.1215 170.038 89.1389L169.81 89.5325C169.985 89.7202 170.088 89.9474 170.119 90.214C170.153 90.4819 170.1 90.7362 169.961 90.9769L169.704 91.4225C169.696 91.4355 169.686 91.4383 169.673 91.4308L169.061 91.0777C169.048 91.0702 169.046 91.0599 169.053 91.0469L169.304 90.5975C169.378 90.4696 169.396 90.3428 169.359 90.2172C169.321 90.0915 169.25 89.998 169.143 89.9367C169.033 89.8728 168.914 89.8606 168.787 89.9001C168.66 89.9396 168.564 90.0169 168.497 90.1318C168.433 90.2424 168.403 90.3505 168.405 90.4561C168.41 90.563 168.455 90.6913 168.539 90.8411L168.915 91.4661C169.041 91.6688 169.113 91.874 169.132 92.0815C169.155 92.2882 169.102 92.5021 168.974 92.7233C168.828 92.977 168.632 93.156 168.387 93.2602C168.144 93.3656 167.892 93.3909 167.632 93.336L167.405 93.7296C167.394 93.7469 167.379 93.7494 167.357 93.7368ZM171.007 95.844L168.521 94.4092C168.5 94.3966 168.495 94.3795 168.508 94.3579L168.943 93.6032C168.948 93.5945 168.958 93.5884 168.971 93.5847L171.921 92.2775C171.975 92.2538 172.03 92.2162 172.086 92.1646C172.145 92.112 172.188 92.0619 172.216 92.0142C172.291 91.8841 172.313 91.7379 172.283 91.5756C172.252 91.4134 172.165 91.2909 172.022 91.2083C171.885 91.1294 171.739 91.1145 171.584 91.1635C171.428 91.2125 171.304 91.3172 171.211 91.4777L171.024 91.803C171.011 91.8247 170.994 91.8293 170.972 91.8167L170.224 91.3848C170.207 91.3748 170.204 91.3589 170.217 91.3372L170.405 91.012C170.549 90.7626 170.741 90.5716 170.983 90.4392C171.222 90.3054 171.474 90.2359 171.741 90.2306C172.008 90.2231 172.255 90.2844 172.48 90.4146C172.719 90.5523 172.902 90.7389 173.029 90.9743C173.153 91.2105 173.215 91.4622 173.217 91.7294C173.221 91.9977 173.157 92.2479 173.023 92.48C172.939 92.6252 172.827 92.7588 172.687 92.8805C172.551 93.0014 172.405 93.0947 172.248 93.1604L169.98 94.1669L171.476 95.0308C171.496 95.042 171.5 95.0563 171.49 95.0737L171.055 95.8283C171.042 95.85 171.026 95.8552 171.007 95.844ZM172.872 97.0077C172.59 96.8449 172.375 96.6396 172.226 96.3917C172.079 96.145 172.002 95.8852 171.995 95.6122C171.991 95.3382 172.059 95.0798 172.2 94.8369L173.425 92.7296C173.568 92.4824 173.758 92.2958 173.995 92.1698C174.232 92.0404 174.493 91.9787 174.779 91.9846C175.066 91.9884 175.349 92.071 175.629 92.2325C175.915 92.3978 176.13 92.6014 176.274 92.8434C176.417 93.0853 176.492 93.3422 176.497 93.614C176.505 93.8849 176.439 94.1428 176.297 94.3879L175.085 96.5027C174.946 96.7434 174.757 96.9306 174.518 97.0644C174.276 97.1968 174.012 97.2612 173.725 97.2574C173.44 97.2549 173.156 97.1717 172.872 97.0077ZM174.278 96.037L175.49 93.9221C175.581 93.766 175.595 93.6053 175.534 93.4401C175.476 93.2762 175.353 93.1404 175.167 93.0327C174.976 92.9225 174.795 92.8831 174.624 92.9143C174.452 92.9455 174.322 93.0392 174.232 93.1953L173.013 95.3064C172.918 95.4712 172.9 95.6345 172.96 95.7963C173.02 95.9581 173.145 96.094 173.336 96.2042C173.522 96.3119 173.702 96.3518 173.874 96.324C174.048 96.2974 174.183 96.2018 174.278 96.037ZM176.183 98.9195C175.901 98.7567 175.686 98.5514 175.537 98.3035C175.39 98.0568 175.313 97.797 175.306 97.524C175.302 97.25 175.371 96.9916 175.511 96.7487L176.736 94.6414C176.879 94.3942 177.069 94.2076 177.307 94.0816C177.543 93.9522 177.804 93.8905 178.09 93.8964C178.377 93.9002 178.66 93.9828 178.94 94.1443C179.226 94.3096 179.441 94.5132 179.585 94.7552C179.729 94.9972 179.803 95.254 179.808 95.5258C179.816 95.7967 179.75 96.0546 179.608 96.2997L178.396 98.4145C178.257 98.6552 178.068 98.8424 177.829 98.9762C177.588 99.1087 177.324 99.173 177.037 99.1692C176.752 99.1667 176.467 99.0835 176.183 98.9195ZM177.589 97.9488L178.802 95.8339C178.892 95.6778 178.907 95.5171 178.846 95.352C178.787 95.188 178.665 95.0522 178.478 94.9445C178.287 94.8344 178.106 94.7949 177.935 94.8261C177.764 94.8573 177.633 94.951 177.543 95.1072L176.324 97.2182C176.229 97.383 176.211 97.5463 176.271 97.7081C176.331 97.8699 176.456 98.0058 176.647 98.116C176.834 98.2237 177.013 98.2636 177.185 98.2358C177.36 98.2093 177.494 98.1136 177.589 97.9488ZM178.947 100.428L178.192 99.9925C178.175 99.9825 178.172 99.9666 178.185 99.9449L180.836 95.3822C180.849 95.3606 180.864 95.3547 180.881 95.3647L181.629 95.7967C181.647 95.8067 181.649 95.8226 181.637 95.8442L180.726 97.4218L182.685 96.4406C182.712 96.4332 182.733 96.434 182.748 96.4427L183.513 96.8841C183.532 96.8953 183.532 96.9065 183.511 96.9176L181.298 98.0906L181.004 101.582C181.005 101.605 180.989 101.608 180.957 101.589L180.144 101.119C180.122 101.107 180.114 101.091 180.12 101.071L180.349 98.5923L179.908 98.8233L178.992 100.411C178.979 100.432 178.964 100.438 178.947 100.428Z" fill="white"/>
<path d="M130.88 159.279L128.395 157.845C128.373 157.832 128.369 157.815 128.381 157.793L128.817 157.039C128.822 157.03 128.831 157.024 128.845 157.02L131.794 155.713C131.848 155.689 131.903 155.652 131.959 155.6C132.018 155.548 132.062 155.497 132.089 155.45C132.165 155.32 132.187 155.173 132.156 155.011C132.125 154.849 132.039 154.726 131.895 154.644C131.759 154.565 131.613 154.55 131.457 154.599C131.302 154.648 131.178 154.753 131.085 154.913L130.897 155.238C130.885 155.26 130.868 155.265 130.846 155.252L130.098 154.82C130.08 154.81 130.078 154.794 130.091 154.773L130.278 154.447C130.422 154.198 130.615 154.007 130.856 153.875C131.095 153.741 131.348 153.671 131.614 153.666C131.882 153.659 132.128 153.72 132.354 153.85C132.592 153.988 132.775 154.174 132.902 154.41C133.026 154.646 133.089 154.898 133.091 155.165C133.095 155.433 133.03 155.683 132.896 155.915C132.812 156.061 132.7 156.194 132.561 156.316C132.424 156.437 132.278 156.53 132.122 156.596L129.853 157.602L131.35 158.466C131.369 158.478 131.374 158.492 131.364 158.509L130.928 159.264C130.916 159.286 130.9 159.291 130.88 159.279ZM133.489 160.786L132.737 160.352C132.72 160.342 132.718 160.326 132.73 160.304L133.181 159.524L131.74 158.692C131.723 158.682 131.72 158.666 131.733 158.644L132.155 157.912L135.356 155.718C135.377 155.707 135.396 155.707 135.414 155.717L136.165 156.15C136.178 156.158 136.18 156.17 136.17 156.188L134.443 159.194L134.911 159.464C134.933 159.477 134.937 159.495 134.923 159.519L134.504 160.244C134.492 160.266 134.477 160.272 134.459 160.262L133.984 159.987L133.534 160.768C133.521 160.79 133.506 160.796 133.489 160.786ZM133.639 158.73L134.477 157.279L132.959 158.337L133.639 158.73ZM135.947 162.162L139.416 158.062C139.43 158.047 139.446 158.045 139.463 158.055L140.429 158.612C140.447 158.622 140.453 158.637 140.447 158.657L138.598 163.692C138.588 163.715 138.573 163.721 138.554 163.71L137.815 163.283C137.793 163.271 137.788 163.253 137.798 163.23L138.008 162.701L137.101 162.177L136.747 162.624C136.733 162.644 136.716 162.649 136.696 162.637L135.955 162.209C135.937 162.199 135.935 162.183 135.947 162.162ZM139.093 159.883L139.196 159.614L139.024 159.844L137.645 161.542L138.286 161.912L139.093 159.883ZM139.777 164.416L139.028 163.984C139.007 163.971 139.002 163.954 139.015 163.933L141.67 159.363C141.68 159.346 141.694 159.342 141.711 159.352L142.993 160.092C143.4 160.328 143.65 160.638 143.743 161.024C143.839 161.409 143.763 161.815 143.517 162.242C143.336 162.555 143.117 162.791 142.86 162.952C142.601 163.109 142.336 163.193 142.064 163.204C141.792 163.214 141.539 163.152 141.304 163.017L140.797 162.724L139.828 164.402C139.815 164.424 139.798 164.428 139.777 164.416ZM142.536 160.883L142.025 160.596L141.263 161.917L141.77 162.21C141.911 162.291 142.072 162.295 142.254 162.22C142.437 162.144 142.591 161.997 142.716 161.78C142.817 161.607 142.852 161.438 142.823 161.274C142.794 161.107 142.699 160.977 142.536 160.883ZM142.873 166.204L142.125 165.772C142.103 165.759 142.099 165.742 142.111 165.72L144.767 161.151C144.777 161.134 144.79 161.13 144.808 161.14L146.089 161.88C146.497 162.116 146.747 162.426 146.839 162.812C146.935 163.197 146.86 163.603 146.613 164.03C146.433 164.343 146.214 164.579 145.956 164.74C145.698 164.897 145.433 164.981 145.161 164.991C144.888 165.002 144.635 164.94 144.401 164.804L143.894 164.511L142.925 166.19C142.912 166.212 142.895 166.216 142.873 166.204ZM145.633 162.671L145.122 162.384L144.359 163.705L144.867 163.998C145.008 164.079 145.169 164.083 145.351 164.008C145.534 163.932 145.688 163.785 145.813 163.568C145.913 163.395 145.949 163.226 145.919 163.061C145.891 162.895 145.796 162.765 145.633 162.671ZM147.369 168.799L145.215 167.556C145.198 167.546 145.195 167.53 145.208 167.508L147.853 162.942C147.866 162.92 147.883 162.916 147.904 162.928L148.646 163.356C148.668 163.369 148.672 163.386 148.66 163.408L146.469 167.187L147.842 167.979C147.864 167.992 147.868 168.009 147.856 168.031L147.42 168.785C147.407 168.807 147.39 168.812 147.369 168.799ZM148.624 169.524L147.87 169.088C147.848 169.076 147.843 169.059 147.856 169.037L150.505 164.464C150.515 164.447 150.528 164.443 150.546 164.453L151.294 164.885C151.311 164.895 151.315 164.909 151.305 164.926L148.669 169.507C148.656 169.528 148.642 169.534 148.624 169.524ZM151.415 171.135L149.262 169.892C149.244 169.882 149.242 169.866 149.255 169.845L151.903 165.272C151.913 165.254 151.927 165.251 151.944 165.261L154.085 166.496C154.102 166.506 154.105 166.522 154.092 166.544L153.662 167.289C153.652 167.306 153.638 167.31 153.621 167.3L152.255 166.511L151.654 167.552L153.02 168.341C153.037 168.351 153.041 168.364 153.031 168.382L152.602 169.14C152.592 169.157 152.578 169.161 152.561 169.151L151.188 168.359L150.516 169.523L151.888 170.316C151.906 170.326 151.908 170.341 151.896 170.363L151.456 171.124C151.446 171.142 151.432 171.145 151.415 171.135ZM153.263 172.194L152.066 171.511C152.044 171.498 152.039 171.481 152.052 171.46L154.707 166.89C154.717 166.873 154.731 166.869 154.748 166.879L155.998 167.592C156.249 167.728 156.44 167.914 156.57 168.148C156.703 168.384 156.77 168.638 156.772 168.911C156.777 169.183 156.709 169.441 156.567 169.686L155.463 171.599C155.315 171.855 155.118 172.053 154.872 172.194C154.625 172.332 154.361 172.404 154.08 172.409C153.8 172.413 153.528 172.341 153.263 172.194ZM155.538 168.389L155.069 168.127L153.32 171.142L153.733 171.38C153.898 171.476 154.069 171.498 154.249 171.448C154.428 171.399 154.564 171.293 154.656 171.133L155.764 169.214C155.846 169.073 155.864 168.92 155.82 168.756C155.778 168.59 155.683 168.467 155.538 168.389Z" fill="white"/>
<path d="M124.427 148.141C124.404 148.121 124.373 148.104 124.345 148.093C123.76 147.727 123.566 146.962 123.916 146.356C124.274 145.737 125.059 145.526 125.678 145.884C126.298 146.241 126.505 147.031 126.15 147.646C125.796 148.25 125.037 148.464 124.427 148.141Z" stroke="white" stroke-width="0.721155" stroke-linecap="round" stroke-linejoin="round"/>
<path d="M122.161 151.036C122.697 151.478 123.411 151.751 124.047 151.709C124.893 151.654 125.278 150.987 124.902 150.228C124.617 149.653 124.014 149.167 123.361 148.928" stroke="white" stroke-width="0.721155" stroke-linecap="round" stroke-linejoin="round"/>
<path d="M119.218 145.133C119.247 145.144 119.277 145.161 119.3 145.181C119.91 145.504 120.669 145.29 121.019 144.684C121.377 144.064 121.166 143.279 120.547 142.921C119.928 142.564 119.14 142.779 118.785 143.394C118.439 144.002 118.633 144.767 119.218 145.133Z" stroke="white" stroke-width="0.721155" stroke-linecap="round" stroke-linejoin="round"/>
<path d="M117.844 148.543C117.193 148.3 116.6 147.819 116.318 147.246C115.943 146.487 116.328 145.82 117.173 145.765C117.814 145.725 118.536 146.004 119.07 146.45" stroke="white" stroke-width="0.721155" stroke-linecap="round" stroke-linejoin="round"/>
<path d="M119.962 149.875C119.938 149.856 119.908 149.838 119.879 149.828C119.294 149.461 119.101 148.697 119.451 148.091C119.808 147.471 120.594 147.261 121.213 147.618C121.832 147.976 122.04 148.766 121.685 149.381C121.331 149.984 120.569 150.203 119.962 149.875Z" stroke="white" stroke-width="0.721155" stroke-linecap="round" stroke-linejoin="round"/>
<path d="M117.914 150.512C117.069 150.566 116.684 151.233 117.059 151.993C117.484 152.856 118.619 153.511 119.579 153.448C120.425 153.393 120.81 152.726 120.434 151.967C120.011 151.11 118.872 150.453 117.914 150.512Z" stroke="white" stroke-width="0.721155" stroke-linecap="round" stroke-linejoin="round"/>
</g>
<defs>
<linearGradient id="paint0_linear_2_1018" x1="51.8923" y1="81.3442" x2="51.8923" y2="105.344" gradientUnits="userSpaceOnUse">
<stop stop-color="#CE9FFC"/>
<stop offset="0.505208" stop-color="#A582F7"/>
<stop offset="1" stop-color="#7367F0"/>
</linearGradient>
<clipPath id="clip0_2_1018">
<rect width="182" height="122" fill="white" transform="translate(61) rotate(30)"/>
</clipPath>
<clipPath id="clip1_2_1018">
<rect width="110" height="110" fill="white" transform="translate(101.72 75.4711) rotate(30)"/>
</clipPath>
</defs>
</svg>
