<svg width="434" height="155" viewBox="0 0 434 155" fill="none" xmlns="http://www.w3.org/2000/svg">
<path d="M67.4202 122H48.3264C48.5452 120.115 49.2066 118.344 50.3108 116.688C51.4254 115.021 53.5087 113.057 56.5608 110.797C58.4254 109.411 59.6181 108.359 60.1389 107.641C60.6597 106.922 60.9202 106.24 60.9202 105.594C60.9202 104.896 60.6597 104.302 60.1389 103.812C59.6285 103.312 58.9827 103.062 58.2014 103.062C57.3889 103.062 56.7222 103.318 56.2014 103.828C55.691 104.339 55.3472 105.24 55.1702 106.531L48.7952 106.016C49.0452 104.224 49.5035 102.828 50.1702 101.828C50.8368 100.818 51.7743 100.047 52.9827 99.5156C54.2014 98.974 55.8837 98.7031 58.0295 98.7031C60.2691 98.7031 62.0087 98.9583 63.2483 99.4688C64.4983 99.9792 65.4775 100.766 66.1858 101.828C66.9045 102.88 67.2639 104.062 67.2639 105.375C67.2639 106.771 66.8525 108.104 66.0295 109.375C65.217 110.646 63.7327 112.042 61.5764 113.562C60.2952 114.448 59.4358 115.068 58.9983 115.422C58.5712 115.776 58.066 116.24 57.4827 116.812H67.4202V122ZM70.1389 110.453C70.1389 106.099 70.9202 103.052 72.4827 101.312C74.0556 99.5729 76.4462 98.7031 79.6545 98.7031C81.1962 98.7031 82.4618 98.8958 83.4514 99.2812C84.441 99.6562 85.2483 100.151 85.8733 100.766C86.4983 101.37 86.9879 102.01 87.342 102.688C87.7066 103.354 87.9983 104.135 88.217 105.031C88.6441 106.74 88.8577 108.521 88.8577 110.375C88.8577 114.531 88.1545 117.573 86.7483 119.5C85.342 121.427 82.9202 122.391 79.4827 122.391C77.5556 122.391 75.9983 122.083 74.8108 121.469C73.6233 120.854 72.6493 119.953 71.8889 118.766C71.3368 117.922 70.9045 116.771 70.592 115.312C70.29 113.844 70.1389 112.224 70.1389 110.453ZM76.4514 110.469C76.4514 113.385 76.7066 115.38 77.217 116.453C77.7379 117.516 78.4879 118.047 79.467 118.047C80.1129 118.047 80.6702 117.823 81.1389 117.375C81.6181 116.917 81.967 116.198 82.1858 115.219C82.415 114.24 82.5295 112.714 82.5295 110.641C82.5295 107.599 82.2691 105.557 81.7483 104.516C81.2379 103.464 80.467 102.938 79.4358 102.938C78.3837 102.938 77.6233 103.474 77.1545 104.547C76.6858 105.609 76.4514 107.583 76.4514 110.469ZM92.4358 99.0938H101.748L105.342 113.031L108.92 99.0938H118.201V122H112.42V104.531L107.936 122H102.701L98.2327 104.531V122H92.4358V99.0938ZM122.373 108.031H128.358V102.016H133.405V108.031H139.42V113.094H133.405V119.078H128.358V113.094H122.373V108.031Z" fill="white"/>
<path d="M80.8335 137.59V146.626C80.8335 148.408 79.4655 149.704 77.6475 149.704C75.8115 149.704 74.4615 148.408 74.4615 146.626V137.59H72.7335V146.626C72.7335 149.38 74.6775 151.216 77.6475 151.216C80.6175 151.216 82.5615 149.362 82.5615 146.626V137.59H80.8335ZM88.4518 151.216C90.5038 151.216 91.9258 150.082 91.9258 148.426C91.9258 147.148 91.0618 146.212 89.4598 145.744L87.8398 145.258C87.0118 145.006 86.4718 144.574 86.4718 143.926C86.4718 143.17 87.1558 142.666 88.1818 142.666C89.3158 142.666 90.2158 143.26 90.6118 144.286L91.9078 143.656C91.3498 142.162 89.9458 141.244 88.1818 141.244C86.2018 141.244 84.8698 142.36 84.8698 144.016C84.8698 145.312 85.6978 146.23 87.2998 146.68L88.8658 147.112C89.7478 147.364 90.3238 147.742 90.3238 148.426C90.3238 149.218 89.5678 149.794 88.4518 149.794C87.2638 149.794 86.2378 149.164 85.7518 147.958L84.4378 148.606C85.0498 150.226 86.5798 151.216 88.4518 151.216ZM102.162 145.816C102.162 143.386 100.434 141.244 97.7161 141.244C95.0521 141.244 93.0721 143.332 93.0721 146.212C93.0721 149.092 95.1061 151.216 97.8421 151.216C99.8041 151.216 101.352 150.154 101.946 148.84L100.596 148.12C100.092 149.092 99.2101 149.812 97.8601 149.812C96.1861 149.812 94.7641 148.588 94.6921 146.698H102.09C102.144 146.392 102.162 146.086 102.162 145.816ZM94.7281 145.366C94.9441 143.638 96.2221 142.612 97.7161 142.612C99.1201 142.612 100.434 143.782 100.452 145.366H94.7281ZM107.893 141.352C106.741 141.352 105.823 141.766 105.319 142.648V141.46H103.825V151H105.373V145.312C105.373 143.728 106.291 142.828 107.659 142.828H108.667V141.352H107.893ZM113.659 151.216C115.711 151.216 117.133 150.082 117.133 148.426C117.133 147.148 116.269 146.212 114.667 145.744L113.047 145.258C112.219 145.006 111.679 144.574 111.679 143.926C111.679 143.17 112.363 142.666 113.389 142.666C114.523 142.666 115.423 143.26 115.819 144.286L117.115 143.656C116.557 142.162 115.153 141.244 113.389 141.244C111.409 141.244 110.077 142.36 110.077 144.016C110.077 145.312 110.905 146.23 112.507 146.68L114.073 147.112C114.955 147.364 115.531 147.742 115.531 148.426C115.531 149.218 114.775 149.794 113.659 149.794C112.471 149.794 111.445 149.164 110.959 147.958L109.645 148.606C110.257 150.226 111.787 151.216 113.659 151.216Z" fill="white"/>
<path d="M226.719 146H227.385C229.707 146 231.183 144.524 231.183 142.184V132.59H229.473V142.202C229.473 143.516 228.663 144.344 227.385 144.344H226.719V146ZM238.106 146.216C240.86 146.216 243.02 144.11 243.02 141.212C243.02 138.314 240.878 136.244 238.106 136.244C235.334 136.244 233.192 138.314 233.192 141.212C233.192 144.11 235.352 146.216 238.106 146.216ZM238.106 144.722C236.252 144.722 234.83 143.228 234.83 141.23C234.83 139.232 236.252 137.738 238.106 137.738C239.96 137.738 241.382 139.232 241.382 141.23C241.382 143.228 239.96 144.722 238.106 144.722ZM249.809 136.244C248.351 136.244 247.073 136.856 246.407 137.864V132.59H244.859V146H246.371V144.614C247.073 145.64 248.369 146.216 249.791 146.216C252.491 146.216 254.615 144.11 254.615 141.23C254.615 138.35 252.491 136.244 249.809 136.244ZM249.701 144.722C247.811 144.722 246.407 143.246 246.407 141.23C246.407 139.232 247.811 137.738 249.701 137.738C251.573 137.738 252.977 139.232 252.977 141.23C252.977 143.246 251.573 144.722 249.701 144.722ZM259.773 146.216C261.825 146.216 263.247 145.082 263.247 143.426C263.247 142.148 262.383 141.212 260.781 140.744L259.161 140.258C258.333 140.006 257.793 139.574 257.793 138.926C257.793 138.17 258.477 137.666 259.503 137.666C260.637 137.666 261.537 138.26 261.933 139.286L263.229 138.656C262.671 137.162 261.267 136.244 259.503 136.244C257.523 136.244 256.191 137.36 256.191 139.016C256.191 140.312 257.019 141.23 258.621 141.68L260.187 142.112C261.069 142.364 261.645 142.742 261.645 143.426C261.645 144.218 260.889 144.794 259.773 144.794C258.585 144.794 257.559 144.164 257.073 142.958L255.759 143.606C256.371 145.226 257.901 146.216 259.773 146.216Z" fill="white"/>
<path d="M192.983 99.0938H208.092V104.172H197.858L197.311 107.609C198.019 107.276 198.717 107.026 199.405 106.859C200.102 106.693 200.79 106.609 201.467 106.609C203.759 106.609 205.618 107.302 207.045 108.688C208.472 110.073 209.186 111.818 209.186 113.922C209.186 115.401 208.816 116.823 208.076 118.188C207.347 119.552 206.306 120.594 204.951 121.312C203.608 122.031 201.884 122.391 199.78 122.391C198.269 122.391 196.972 122.25 195.889 121.969C194.816 121.677 193.899 121.25 193.139 120.688C192.389 120.115 191.78 119.469 191.311 118.75C190.842 118.031 190.451 117.135 190.139 116.062L196.576 115.359C196.733 116.391 197.097 117.177 197.67 117.719C198.243 118.25 198.925 118.516 199.717 118.516C200.602 118.516 201.332 118.182 201.905 117.516C202.488 116.839 202.78 115.833 202.78 114.5C202.78 113.135 202.488 112.135 201.905 111.5C201.321 110.865 200.545 110.547 199.576 110.547C198.962 110.547 198.368 110.698 197.795 111C197.368 111.219 196.899 111.615 196.389 112.188L190.967 111.406L192.983 99.0938ZM211.748 110.453C211.748 106.099 212.53 103.052 214.092 101.312C215.665 99.5729 218.056 98.7031 221.264 98.7031C222.806 98.7031 224.071 98.8958 225.061 99.2812C226.05 99.6562 226.858 100.151 227.483 100.766C228.108 101.37 228.597 102.01 228.951 102.688C229.316 103.354 229.608 104.135 229.826 105.031C230.253 106.74 230.467 108.521 230.467 110.375C230.467 114.531 229.764 117.573 228.358 119.5C226.951 121.427 224.53 122.391 221.092 122.391C219.165 122.391 217.608 122.083 216.42 121.469C215.233 120.854 214.259 119.953 213.498 118.766C212.946 117.922 212.514 116.771 212.201 115.312C211.899 113.844 211.748 112.224 211.748 110.453ZM218.061 110.469C218.061 113.385 218.316 115.38 218.826 116.453C219.347 117.516 220.097 118.047 221.076 118.047C221.722 118.047 222.28 117.823 222.748 117.375C223.227 116.917 223.576 116.198 223.795 115.219C224.024 114.24 224.139 112.714 224.139 110.641C224.139 107.599 223.878 105.557 223.358 104.516C222.847 103.464 222.076 102.938 221.045 102.938C219.993 102.938 219.233 103.474 218.764 104.547C218.295 105.609 218.061 107.583 218.061 110.469ZM233.092 110.453C233.092 106.099 233.873 103.052 235.436 101.312C237.009 99.5729 239.399 98.7031 242.608 98.7031C244.149 98.7031 245.415 98.8958 246.405 99.2812C247.394 99.6562 248.201 100.151 248.826 100.766C249.451 101.37 249.941 102.01 250.295 102.688C250.66 103.354 250.951 104.135 251.17 105.031C251.597 106.74 251.811 108.521 251.811 110.375C251.811 114.531 251.108 117.573 249.701 119.5C248.295 121.427 245.873 122.391 242.436 122.391C240.509 122.391 238.951 122.083 237.764 121.469C236.576 120.854 235.602 119.953 234.842 118.766C234.29 117.922 233.858 116.771 233.545 115.312C233.243 113.844 233.092 112.224 233.092 110.453ZM239.405 110.469C239.405 113.385 239.66 115.38 240.17 116.453C240.691 117.516 241.441 118.047 242.42 118.047C243.066 118.047 243.623 117.823 244.092 117.375C244.571 116.917 244.92 116.198 245.139 115.219C245.368 114.24 245.483 112.714 245.483 110.641C245.483 107.599 245.222 105.557 244.701 104.516C244.191 103.464 243.42 102.938 242.389 102.938C241.337 102.938 240.576 103.474 240.108 104.547C239.639 105.609 239.405 107.583 239.405 110.469ZM255.498 99.0938H262.576V107.75L269.998 99.0938H279.405L271.061 107.734L279.78 122H271.061L266.233 112.578L262.576 116.406V122H255.498V99.0938ZM281.764 108.031H287.748V102.016H292.795V108.031H298.811V113.094H292.795V119.078H287.748V113.094H281.764V108.031Z" fill="white"/>
<path d="M357.396 146H359.106V140.852H362.184C364.938 140.852 366.792 139.232 366.792 136.73C366.792 134.21 364.92 132.59 362.184 132.59H357.396V146ZM359.106 139.358V134.084H362.184C363.894 134.084 365.028 135.146 365.028 136.712C365.028 138.296 363.894 139.358 362.184 139.358H359.106ZM371.839 136.244C370.075 136.244 368.527 137.252 367.987 138.548L369.373 139.268C369.787 138.332 370.687 137.72 371.839 137.72C373.099 137.72 373.999 138.44 373.999 139.538V139.808L370.687 140.546C368.761 140.978 367.627 141.95 367.627 143.354C367.627 145.028 368.995 146.216 371.029 146.216C372.253 146.216 373.387 145.622 374.035 144.668V146H375.547V139.538C375.547 137.594 374.017 136.244 371.839 136.244ZM371.119 144.83C369.985 144.83 369.265 144.254 369.265 143.354C369.265 142.58 369.967 141.986 371.047 141.752L373.999 141.068V141.896C373.999 143.57 372.793 144.83 371.119 144.83ZM381.639 136.352C380.487 136.352 379.569 136.766 379.065 137.648V136.46H377.571V146H379.119V140.312C379.119 138.728 380.037 137.828 381.405 137.828H382.413V136.352H381.639ZM388.141 146.108C388.411 146.108 388.789 146.09 389.095 146.018V144.758C388.897 144.794 388.627 144.812 388.429 144.812C386.791 144.812 386.683 143.696 386.683 143.084V137.936H388.987V136.46H386.683V133.364H385.135V135.056C385.135 135.902 384.595 136.46 383.767 136.46H383.281V137.936H385.135V143.084C385.135 145.01 386.215 146.108 388.141 146.108ZM395.196 136.244C394.026 136.244 393 136.73 392.442 137.558V136.46H390.93V146H392.478V140.222C392.478 138.728 393.432 137.738 394.854 137.738C396.294 137.738 397.212 138.71 397.212 140.222V146H398.76V139.718C398.76 137.72 397.266 136.244 395.196 136.244ZM409.5 140.816C409.5 138.386 407.772 136.244 405.054 136.244C402.39 136.244 400.41 138.332 400.41 141.212C400.41 144.092 402.444 146.216 405.18 146.216C407.142 146.216 408.69 145.154 409.284 143.84L407.934 143.12C407.43 144.092 406.548 144.812 405.198 144.812C403.524 144.812 402.102 143.588 402.03 141.698H409.428C409.482 141.392 409.5 141.086 409.5 140.816ZM402.066 140.366C402.282 138.638 403.56 137.612 405.054 137.612C406.458 137.612 407.772 138.782 407.79 140.366H402.066ZM415.231 136.352C414.079 136.352 413.161 136.766 412.657 137.648V136.46H411.163V146H412.711V140.312C412.711 138.728 413.629 137.828 414.997 137.828H416.005V136.352H415.231ZM420.997 146.216C423.049 146.216 424.471 145.082 424.471 143.426C424.471 142.148 423.607 141.212 422.005 140.744L420.385 140.258C419.557 140.006 419.017 139.574 419.017 138.926C419.017 138.17 419.701 137.666 420.727 137.666C421.861 137.666 422.761 138.26 423.157 139.286L424.453 138.656C423.895 137.162 422.491 136.244 420.727 136.244C418.747 136.244 417.415 137.36 417.415 139.016C417.415 140.312 418.243 141.23 419.845 141.68L421.411 142.112C422.293 142.364 422.869 142.742 422.869 143.426C422.869 144.218 422.113 144.794 420.997 144.794C419.809 144.794 418.783 144.164 418.297 142.958L416.983 143.606C417.595 145.226 419.125 146.216 420.997 146.216Z" fill="white"/>
<path d="M364.155 98.7031V122H357.717V106.734C356.675 107.526 355.665 108.167 354.686 108.656C353.717 109.146 352.498 109.615 351.03 110.062V104.844C353.196 104.146 354.878 103.307 356.076 102.328C357.274 101.349 358.212 100.141 358.889 98.7031H364.155ZM371.076 110.453C371.076 106.099 371.858 103.052 373.42 101.312C374.993 99.5729 377.384 98.7031 380.592 98.7031C382.134 98.7031 383.399 98.8958 384.389 99.2812C385.378 99.6562 386.186 100.151 386.811 100.766C387.436 101.37 387.925 102.01 388.28 102.688C388.644 103.354 388.936 104.135 389.155 105.031C389.582 106.74 389.795 108.521 389.795 110.375C389.795 114.531 389.092 117.573 387.686 119.5C386.28 121.427 383.858 122.391 380.42 122.391C378.493 122.391 376.936 122.083 375.748 121.469C374.561 120.854 373.587 119.953 372.826 118.766C372.274 117.922 371.842 116.771 371.53 115.312C371.227 113.844 371.076 112.224 371.076 110.453ZM377.389 110.469C377.389 113.385 377.644 115.38 378.155 116.453C378.675 117.516 379.425 118.047 380.405 118.047C381.05 118.047 381.608 117.823 382.076 117.375C382.556 116.917 382.905 116.198 383.123 115.219C383.352 114.24 383.467 112.714 383.467 110.641C383.467 107.599 383.207 105.557 382.686 104.516C382.175 103.464 381.405 102.938 380.373 102.938C379.321 102.938 378.561 103.474 378.092 104.547C377.623 105.609 377.389 107.583 377.389 110.469ZM392.42 110.453C392.42 106.099 393.201 103.052 394.764 101.312C396.337 99.5729 398.727 98.7031 401.936 98.7031C403.477 98.7031 404.743 98.8958 405.733 99.2812C406.722 99.6562 407.53 100.151 408.155 100.766C408.78 101.37 409.269 102.01 409.623 102.688C409.988 103.354 410.28 104.135 410.498 105.031C410.925 106.74 411.139 108.521 411.139 110.375C411.139 114.531 410.436 117.573 409.03 119.5C407.623 121.427 405.201 122.391 401.764 122.391C399.837 122.391 398.28 122.083 397.092 121.469C395.905 120.854 394.931 119.953 394.17 118.766C393.618 117.922 393.186 116.771 392.873 115.312C392.571 113.844 392.42 112.224 392.42 110.453ZM398.733 110.469C398.733 113.385 398.988 115.38 399.498 116.453C400.019 117.516 400.769 118.047 401.748 118.047C402.394 118.047 402.951 117.823 403.42 117.375C403.899 116.917 404.248 116.198 404.467 115.219C404.696 114.24 404.811 112.714 404.811 110.641C404.811 107.599 404.55 105.557 404.03 104.516C403.519 103.464 402.748 102.938 401.717 102.938C400.665 102.938 399.905 103.474 399.436 104.547C398.967 105.609 398.733 107.583 398.733 110.469ZM414.436 108.031H420.42V102.016H425.467V108.031H431.483V113.094H425.467V119.078H420.42V113.094H414.436V108.031Z" fill="white"/>
</svg>
