<svg width="97" height="96" viewBox="0 0 97 96" fill="none" xmlns="http://www.w3.org/2000/svg">
<g clip-path="url(#clip0_2_57)">
<path fill-rule="evenodd" clip-rule="evenodd" d="M56.1308 46.1192C57.1621 43.7184 57.5964 41.6153 57.8271 39.9765C59.9712 24.296 47.4865 15.7029 34.2146 11.7622C30.6592 10.7044 24.8511 10.2851 20.4679 11.8755C17.3874 12.9918 14.999 15.0763 14.4019 18.517C13.7369 22.2656 15.569 26.182 18.5273 29.7149C22.802 34.8281 29.4107 39.1551 33.5633 41.0341C38.3536 43.1999 46.1024 45.743 53.9732 47.2333C52.6569 49.7352 50.662 52.5045 47.5679 55.3633C46.1973 56.6389 44.3111 57.7295 42.167 58.6064C40.5521 55.4707 38.2451 52.5142 35.2461 49.9057C32.722 47.7166 26.561 44.1155 21.1057 43.0103C17.211 42.2245 13.6827 42.7305 11.81 45.5437C9.48945 49.0406 10.3036 52.2998 12.5699 55.0261C15.7589 58.8665 21.9335 61.5953 25.5839 62.2683C29.8315 63.0492 36.1281 62.3248 41.4069 60.4487C46.3058 71.3315 42.7369 84.1323 31.2563 91.1726C30.9171 91.3856 30.8085 91.8402 31.0121 92.1877C31.2292 92.5351 31.6906 92.6436 32.0299 92.4305C44.1753 84.9791 47.975 71.4358 42.8047 59.914C45.0845 58.9752 47.1065 57.8087 48.5721 56.4469C51.9782 53.2955 54.1224 50.2432 55.493 47.508C56.9721 47.762 58.4514 47.9752 59.917 48.1383C66.4986 48.8745 72.6731 48.5701 76.7306 46.4526C86.1077 41.5606 88.7133 31.8692 86.9356 22.409C85.1714 13.0399 79.1055 3.93239 71.2483 0.0755499C70.8819 -0.103986 70.4341 0.047461 70.2576 0.413319C70.0812 0.779312 70.2305 1.22212 70.5969 1.40152C78.0742 5.07149 83.8144 13.7662 85.4835 22.6812C87.1391 31.5054 84.7914 40.58 76.0521 45.1431C72.1845 47.153 66.3358 47.3694 60.0799 46.6705C58.7771 46.5251 57.4607 46.3389 56.1308 46.1192ZM40.7691 59.1398C39.2356 56.2165 37.078 53.4578 34.269 51.0208C31.867 48.9365 26.0181 45.5103 20.8071 44.4579C17.5774 43.8053 14.5919 44.0247 13.0448 46.3609C11.145 49.2101 11.8643 51.8619 13.7098 54.0832C16.6682 57.6641 22.4492 60.1883 25.8553 60.8158C29.845 61.5517 35.7888 60.8904 40.7691 59.1398ZM54.6381 45.8559C55.6965 43.4739 56.1308 41.3892 56.3615 39.7764C58.3971 24.9091 46.3737 16.9144 33.794 13.178C30.4828 12.1913 25.0682 11.7804 20.97 13.2639C18.4052 14.197 16.356 15.8971 15.8539 18.7731C15.2568 22.1319 17.0074 25.6012 19.6536 28.7669C23.779 33.7015 30.1707 37.8752 34.1739 39.6886C38.9643 41.8547 46.7537 44.4031 54.6381 45.8559Z" fill="white"/>
<path fill-rule="evenodd" clip-rule="evenodd" d="M32.182 91.3861C32.4534 90.6832 33.2269 88.6571 33.3355 88.3477C33.634 87.4792 33.6612 87.0015 33.634 86.513C33.6069 86.1208 33.5255 85.7177 33.5662 84.9795C33.5933 84.5724 33.2676 84.2264 32.8605 84.206C32.4534 84.1856 32.1141 84.5005 32.087 84.9076C32.0598 85.5766 32.1006 86.0014 32.1413 86.3732C32.182 86.802 32.1956 87.1359 31.9377 87.8673C31.8156 88.2242 30.9199 90.1363 30.6892 91.0862C30.5671 91.5815 30.6349 91.9533 30.7299 92.1162C30.8656 92.3496 31.11 92.5694 31.4899 92.7201C31.9785 92.9114 32.7927 93.0227 33.7019 93.1679C34.5568 93.3022 35.5203 93.4732 36.3616 93.8342C37.0673 94.1423 37.678 94.5874 37.9766 95.3283C38.1258 95.7069 38.5465 95.8942 38.9265 95.7449C39.3065 95.5956 39.4964 95.1655 39.3471 94.7868C38.9129 93.6659 38.0173 92.9453 36.9453 92.4799C35.9953 92.0687 34.9097 91.8611 33.9326 91.7091C33.3491 91.6154 32.8062 91.5435 32.3855 91.4472C32.3177 91.4322 32.2498 91.4092 32.182 91.3861Z" fill="white"/>
</g>
<defs>
<clipPath id="clip0_2_57">
<rect width="96" height="96" fill="white" transform="translate(0.998291)"/>
</clipPath>
</defs>
</svg>
