<svg width="1259" height="1650" viewBox="0 0 1259 1650" fill="none" xmlns="http://www.w3.org/2000/svg">
<path d="M619.5 65.5C619.5 65.5 283.229 155.768 174 343C-34.7928 700.894 1196.36 194.544 1253 605C1311.7 1030.41 3.99909 763.563 3.99951 1193C3.9998 1493 1038 1544.5 1038 1544.5" stroke="url(#paint0_linear_240_1700)" stroke-width="8" stroke-linecap="round" stroke-dasharray="20 20"/>
<g filter="url(#filter0_bd_240_1700)">
<circle cx="167.5" cy="439.5" r="47.1621" fill="url(#paint1_linear_240_1700)" shape-rendering="crispEdges"/>
</g>
<g filter="url(#filter1_bd_240_1700)">
<circle cx="167.5" cy="439.5" r="48.5" stroke="white" stroke-width="3" shape-rendering="crispEdges"/>
</g>
<path d="M172.364 421.692V458.055H164.676V428.989H164.463L156.135 434.209V427.391L165.137 421.692H172.364Z" fill="white"/>
<g filter="url(#filter2_bd_240_1700)">
<circle cx="910.5" cy="439.5" r="47.1621" fill="url(#paint2_linear_240_1700)" shape-rendering="crispEdges"/>
</g>
<g filter="url(#filter3_bd_240_1700)">
<circle cx="910.5" cy="439.5" r="48.5" stroke="white" stroke-width="3" shape-rendering="crispEdges"/>
</g>
<path d="M896.028 458.097V452.557L908.972 440.572C910.073 439.506 910.996 438.548 911.742 437.695C912.499 436.843 913.073 436.008 913.464 435.192C913.855 434.363 914.05 433.469 914.05 432.511C914.05 431.445 913.807 430.528 913.322 429.758C912.837 428.977 912.174 428.379 911.333 427.965C910.493 427.539 909.54 427.326 908.475 427.326C907.362 427.326 906.391 427.551 905.563 428.001C904.734 428.45 904.095 429.096 903.645 429.936C903.195 430.776 902.97 431.777 902.97 432.937H895.673C895.673 430.557 896.211 428.492 897.288 426.74C898.366 424.988 899.875 423.633 901.816 422.674C903.757 421.715 905.995 421.236 908.528 421.236C911.132 421.236 913.399 421.697 915.328 422.621C917.27 423.532 918.779 424.799 919.856 426.42C920.933 428.042 921.472 429.901 921.472 431.996C921.472 433.369 921.199 434.724 920.655 436.062C920.122 437.399 919.169 438.885 917.796 440.518C916.423 442.14 914.488 444.087 911.99 446.36L906.681 451.562V451.811H921.951V458.097H896.028Z" fill="white"/>
<g filter="url(#filter4_bd_240_1700)">
<circle cx="990.5" cy="839.5" r="47.1621" fill="url(#paint3_linear_240_1700)" shape-rendering="crispEdges"/>
</g>
<g filter="url(#filter5_bd_240_1700)">
<circle cx="990.5" cy="839.5" r="48.5" stroke="white" stroke-width="3" shape-rendering="crispEdges"/>
</g>
<path d="M989.071 858.552C986.42 858.552 984.058 858.097 981.987 857.185C979.927 856.262 978.299 854.995 977.104 853.385C975.92 851.764 975.311 849.893 975.275 847.775H983.016C983.064 848.662 983.354 849.444 983.887 850.118C984.431 850.781 985.153 851.296 986.053 851.663C986.952 852.03 987.964 852.214 989.089 852.214C990.261 852.214 991.297 852.006 992.196 851.592C993.096 851.178 993.8 850.604 994.309 849.87C994.818 849.136 995.073 848.29 995.073 847.331C995.073 846.36 994.8 845.502 994.256 844.756C993.723 843.999 992.954 843.407 991.948 842.981C990.953 842.554 989.77 842.341 988.396 842.341H985.005V836.695H988.396C989.556 836.695 990.58 836.494 991.468 836.091C992.368 835.689 993.066 835.133 993.563 834.422C994.061 833.7 994.309 832.86 994.309 831.901C994.309 830.99 994.09 830.191 993.652 829.504C993.226 828.806 992.622 828.261 991.841 827.871C991.072 827.48 990.172 827.285 989.142 827.285C988.101 827.285 987.148 827.474 986.284 827.853C985.419 828.22 984.727 828.746 984.206 829.433C983.685 830.12 983.407 830.924 983.372 831.848H976.003C976.038 829.753 976.636 827.906 977.796 826.308C978.956 824.71 980.519 823.461 982.484 822.562C984.461 821.65 986.692 821.194 989.178 821.194C991.687 821.194 993.883 821.65 995.765 822.562C997.647 823.473 999.109 824.704 1000.15 826.255C1001.2 827.794 1001.73 829.522 1001.71 831.439C1001.73 833.475 1001.09 835.174 999.813 836.535C998.547 837.897 996.895 838.761 994.86 839.128V839.412C997.535 839.755 999.571 840.684 1000.97 842.199C1002.38 843.703 1003.07 845.585 1003.06 847.846C1003.07 849.917 1002.48 851.758 1001.27 853.368C1000.07 854.978 998.422 856.244 996.315 857.167C994.208 858.091 991.794 858.552 989.071 858.552Z" fill="white"/>
<g filter="url(#filter6_bd_240_1700)">
<circle cx="289.5" cy="956.5" r="47.1621" fill="url(#paint4_linear_240_1700)" shape-rendering="crispEdges"/>
</g>
<g filter="url(#filter7_bd_240_1700)">
<circle cx="289.5" cy="956.5" r="48.5" stroke="white" stroke-width="3" shape-rendering="crispEdges"/>
</g>
<path d="M273.281 968.704V962.65L288.462 938.733H293.682V947.113H290.593L281.023 962.259V962.543H302.596V968.704H273.281ZM290.735 975.096V966.858L290.877 964.177V938.733H298.086V975.096H290.735Z" fill="white"/>
<g filter="url(#filter8_bd_240_1700)">
<circle cx="309.5" cy="1430.5" r="47.1621" fill="url(#paint5_linear_240_1700)" shape-rendering="crispEdges"/>
</g>
<g filter="url(#filter9_bd_240_1700)">
<circle cx="309.5" cy="1430.5" r="48.5" stroke="white" stroke-width="3" shape-rendering="crispEdges"/>
</g>
<path d="M307.943 1449.55C305.434 1449.55 303.196 1449.09 301.231 1448.17C299.278 1447.24 297.728 1445.97 296.579 1444.35C295.431 1442.73 294.833 1440.87 294.786 1438.77H302.244C302.326 1440.18 302.918 1441.33 304.019 1442.2C305.12 1443.08 306.428 1443.52 307.943 1443.52C309.15 1443.52 310.216 1443.25 311.139 1442.72C312.074 1442.17 312.802 1441.42 313.323 1440.46C313.856 1439.49 314.122 1438.38 314.122 1437.12C314.122 1435.84 313.85 1434.72 313.305 1433.75C312.773 1432.78 312.033 1432.02 311.086 1431.48C310.139 1430.93 309.056 1430.65 307.837 1430.64C306.771 1430.64 305.735 1430.86 304.729 1431.3C303.735 1431.74 302.96 1432.34 302.403 1433.09L295.567 1431.87L297.29 1412.69H319.52V1418.98H303.628L302.687 1428.09H302.9C303.54 1427.19 304.504 1426.44 305.795 1425.85C307.085 1425.26 308.529 1424.96 310.127 1424.96C312.317 1424.96 314.27 1425.48 315.986 1426.51C317.703 1427.54 319.058 1428.95 320.052 1430.75C321.047 1432.54 321.538 1434.6 321.526 1436.93C321.538 1439.38 320.97 1441.56 319.822 1443.46C318.685 1445.36 317.093 1446.85 315.045 1447.94C313.009 1449.01 310.642 1449.55 307.943 1449.55Z" fill="white"/>
<g filter="url(#filter10_bd_240_1700)">
<circle cx="1029.5" cy="1539.5" r="47.1621" fill="url(#paint6_linear_240_1700)" shape-rendering="crispEdges"/>
</g>
<g filter="url(#filter11_bd_240_1700)">
<circle cx="1029.5" cy="1539.5" r="48.5" stroke="white" stroke-width="3" shape-rendering="crispEdges"/>
</g>
<path d="M1028.23 1558.59C1026.36 1558.58 1024.55 1558.27 1022.81 1557.65C1021.08 1557.04 1019.53 1556.04 1018.16 1554.65C1016.79 1553.27 1015.7 1551.43 1014.89 1549.15C1014.1 1546.86 1013.7 1544.06 1013.7 1540.73C1013.71 1537.68 1014.06 1534.95 1014.75 1532.55C1015.45 1530.13 1016.44 1528.08 1017.73 1526.4C1019.04 1524.72 1020.59 1523.44 1022.4 1522.57C1024.21 1521.68 1026.24 1521.24 1028.49 1521.24C1030.92 1521.24 1033.06 1521.71 1034.92 1522.66C1036.78 1523.59 1038.27 1524.86 1039.4 1526.47C1040.53 1528.08 1041.22 1529.89 1041.45 1531.89H1033.87C1033.58 1530.62 1032.96 1529.63 1032.01 1528.91C1031.06 1528.18 1029.89 1527.82 1028.49 1527.82C1026.13 1527.82 1024.33 1528.85 1023.1 1530.91C1021.88 1532.97 1021.25 1535.77 1021.23 1539.31H1021.48C1022.02 1538.23 1022.76 1537.32 1023.68 1536.56C1024.62 1535.79 1025.68 1535.2 1026.86 1534.8C1028.06 1534.39 1029.32 1534.18 1030.64 1534.18C1032.8 1534.18 1034.71 1534.69 1036.39 1535.71C1038.08 1536.71 1039.4 1538.1 1040.37 1539.86C1041.34 1541.63 1041.83 1543.64 1041.83 1545.92C1041.83 1548.38 1041.25 1550.57 1040.11 1552.49C1038.97 1554.4 1037.38 1555.91 1035.33 1557C1033.29 1558.07 1030.93 1558.61 1028.23 1558.59ZM1028.19 1552.56C1029.38 1552.56 1030.43 1552.27 1031.37 1551.7C1032.3 1551.14 1033.04 1550.37 1033.57 1549.4C1034.1 1548.43 1034.37 1547.34 1034.37 1546.13C1034.37 1544.92 1034.1 1543.84 1033.57 1542.88C1033.05 1541.92 1032.33 1541.16 1031.41 1540.59C1030.48 1540.02 1029.43 1539.74 1028.24 1539.74C1027.36 1539.74 1026.53 1539.9 1025.78 1540.23C1025.03 1540.57 1024.37 1541.03 1023.81 1541.62C1023.25 1542.21 1022.81 1542.9 1022.49 1543.68C1022.17 1544.45 1022.01 1545.27 1022.01 1546.15C1022.01 1547.32 1022.28 1548.39 1022.81 1549.36C1023.36 1550.33 1024.09 1551.11 1025.01 1551.69C1025.95 1552.27 1027.01 1552.56 1028.19 1552.56Z" fill="white"/>
<defs>
<filter id="filter0_bd_240_1700" x="60.3379" y="332.338" width="214.324" height="214.324" filterUnits="userSpaceOnUse" color-interpolation-filters="sRGB">
<feFlood flood-opacity="0" result="BackgroundImageFix"/>
<feGaussianBlur in="BackgroundImageFix" stdDeviation="5"/>
<feComposite in2="SourceAlpha" operator="in" result="effect1_backgroundBlur_240_1700"/>
<feColorMatrix in="SourceAlpha" type="matrix" values="0 0 0 0 0 0 0 0 0 0 0 0 0 0 0 0 0 0 127 0" result="hardAlpha"/>
<feOffset/>
<feGaussianBlur stdDeviation="30"/>
<feComposite in2="hardAlpha" operator="out"/>
<feColorMatrix type="matrix" values="0 0 0 0 0 0 0 0 0 0 0 0 0 0 0 0 0 0 0.15 0"/>
<feBlend mode="normal" in2="effect1_backgroundBlur_240_1700" result="effect2_dropShadow_240_1700"/>
<feBlend mode="normal" in="SourceGraphic" in2="effect2_dropShadow_240_1700" result="shape"/>
</filter>
<filter id="filter1_bd_240_1700" x="57.5" y="329.5" width="220" height="220" filterUnits="userSpaceOnUse" color-interpolation-filters="sRGB">
<feFlood flood-opacity="0" result="BackgroundImageFix"/>
<feGaussianBlur in="BackgroundImageFix" stdDeviation="5"/>
<feComposite in2="SourceAlpha" operator="in" result="effect1_backgroundBlur_240_1700"/>
<feColorMatrix in="SourceAlpha" type="matrix" values="0 0 0 0 0 0 0 0 0 0 0 0 0 0 0 0 0 0 127 0" result="hardAlpha"/>
<feOffset/>
<feGaussianBlur stdDeviation="30"/>
<feComposite in2="hardAlpha" operator="out"/>
<feColorMatrix type="matrix" values="0 0 0 0 0 0 0 0 0 0 0 0 0 0 0 0 0 0 0.15 0"/>
<feBlend mode="normal" in2="effect1_backgroundBlur_240_1700" result="effect2_dropShadow_240_1700"/>
<feBlend mode="normal" in="SourceGraphic" in2="effect2_dropShadow_240_1700" result="shape"/>
</filter>
<filter id="filter2_bd_240_1700" x="803.338" y="332.338" width="214.324" height="214.324" filterUnits="userSpaceOnUse" color-interpolation-filters="sRGB">
<feFlood flood-opacity="0" result="BackgroundImageFix"/>
<feGaussianBlur in="BackgroundImageFix" stdDeviation="5"/>
<feComposite in2="SourceAlpha" operator="in" result="effect1_backgroundBlur_240_1700"/>
<feColorMatrix in="SourceAlpha" type="matrix" values="0 0 0 0 0 0 0 0 0 0 0 0 0 0 0 0 0 0 127 0" result="hardAlpha"/>
<feOffset/>
<feGaussianBlur stdDeviation="30"/>
<feComposite in2="hardAlpha" operator="out"/>
<feColorMatrix type="matrix" values="0 0 0 0 0 0 0 0 0 0 0 0 0 0 0 0 0 0 0.15 0"/>
<feBlend mode="normal" in2="effect1_backgroundBlur_240_1700" result="effect2_dropShadow_240_1700"/>
<feBlend mode="normal" in="SourceGraphic" in2="effect2_dropShadow_240_1700" result="shape"/>
</filter>
<filter id="filter3_bd_240_1700" x="800.5" y="329.5" width="220" height="220" filterUnits="userSpaceOnUse" color-interpolation-filters="sRGB">
<feFlood flood-opacity="0" result="BackgroundImageFix"/>
<feGaussianBlur in="BackgroundImageFix" stdDeviation="5"/>
<feComposite in2="SourceAlpha" operator="in" result="effect1_backgroundBlur_240_1700"/>
<feColorMatrix in="SourceAlpha" type="matrix" values="0 0 0 0 0 0 0 0 0 0 0 0 0 0 0 0 0 0 127 0" result="hardAlpha"/>
<feOffset/>
<feGaussianBlur stdDeviation="30"/>
<feComposite in2="hardAlpha" operator="out"/>
<feColorMatrix type="matrix" values="0 0 0 0 0 0 0 0 0 0 0 0 0 0 0 0 0 0 0.15 0"/>
<feBlend mode="normal" in2="effect1_backgroundBlur_240_1700" result="effect2_dropShadow_240_1700"/>
<feBlend mode="normal" in="SourceGraphic" in2="effect2_dropShadow_240_1700" result="shape"/>
</filter>
<filter id="filter4_bd_240_1700" x="883.338" y="732.338" width="214.324" height="214.324" filterUnits="userSpaceOnUse" color-interpolation-filters="sRGB">
<feFlood flood-opacity="0" result="BackgroundImageFix"/>
<feGaussianBlur in="BackgroundImageFix" stdDeviation="5"/>
<feComposite in2="SourceAlpha" operator="in" result="effect1_backgroundBlur_240_1700"/>
<feColorMatrix in="SourceAlpha" type="matrix" values="0 0 0 0 0 0 0 0 0 0 0 0 0 0 0 0 0 0 127 0" result="hardAlpha"/>
<feOffset/>
<feGaussianBlur stdDeviation="30"/>
<feComposite in2="hardAlpha" operator="out"/>
<feColorMatrix type="matrix" values="0 0 0 0 0 0 0 0 0 0 0 0 0 0 0 0 0 0 0.15 0"/>
<feBlend mode="normal" in2="effect1_backgroundBlur_240_1700" result="effect2_dropShadow_240_1700"/>
<feBlend mode="normal" in="SourceGraphic" in2="effect2_dropShadow_240_1700" result="shape"/>
</filter>
<filter id="filter5_bd_240_1700" x="880.5" y="729.5" width="220" height="220" filterUnits="userSpaceOnUse" color-interpolation-filters="sRGB">
<feFlood flood-opacity="0" result="BackgroundImageFix"/>
<feGaussianBlur in="BackgroundImageFix" stdDeviation="5"/>
<feComposite in2="SourceAlpha" operator="in" result="effect1_backgroundBlur_240_1700"/>
<feColorMatrix in="SourceAlpha" type="matrix" values="0 0 0 0 0 0 0 0 0 0 0 0 0 0 0 0 0 0 127 0" result="hardAlpha"/>
<feOffset/>
<feGaussianBlur stdDeviation="30"/>
<feComposite in2="hardAlpha" operator="out"/>
<feColorMatrix type="matrix" values="0 0 0 0 0 0 0 0 0 0 0 0 0 0 0 0 0 0 0.15 0"/>
<feBlend mode="normal" in2="effect1_backgroundBlur_240_1700" result="effect2_dropShadow_240_1700"/>
<feBlend mode="normal" in="SourceGraphic" in2="effect2_dropShadow_240_1700" result="shape"/>
</filter>
<filter id="filter6_bd_240_1700" x="182.338" y="849.338" width="214.324" height="214.324" filterUnits="userSpaceOnUse" color-interpolation-filters="sRGB">
<feFlood flood-opacity="0" result="BackgroundImageFix"/>
<feGaussianBlur in="BackgroundImageFix" stdDeviation="5"/>
<feComposite in2="SourceAlpha" operator="in" result="effect1_backgroundBlur_240_1700"/>
<feColorMatrix in="SourceAlpha" type="matrix" values="0 0 0 0 0 0 0 0 0 0 0 0 0 0 0 0 0 0 127 0" result="hardAlpha"/>
<feOffset/>
<feGaussianBlur stdDeviation="30"/>
<feComposite in2="hardAlpha" operator="out"/>
<feColorMatrix type="matrix" values="0 0 0 0 0 0 0 0 0 0 0 0 0 0 0 0 0 0 0.15 0"/>
<feBlend mode="normal" in2="effect1_backgroundBlur_240_1700" result="effect2_dropShadow_240_1700"/>
<feBlend mode="normal" in="SourceGraphic" in2="effect2_dropShadow_240_1700" result="shape"/>
</filter>
<filter id="filter7_bd_240_1700" x="179.5" y="846.5" width="220" height="220" filterUnits="userSpaceOnUse" color-interpolation-filters="sRGB">
<feFlood flood-opacity="0" result="BackgroundImageFix"/>
<feGaussianBlur in="BackgroundImageFix" stdDeviation="5"/>
<feComposite in2="SourceAlpha" operator="in" result="effect1_backgroundBlur_240_1700"/>
<feColorMatrix in="SourceAlpha" type="matrix" values="0 0 0 0 0 0 0 0 0 0 0 0 0 0 0 0 0 0 127 0" result="hardAlpha"/>
<feOffset/>
<feGaussianBlur stdDeviation="30"/>
<feComposite in2="hardAlpha" operator="out"/>
<feColorMatrix type="matrix" values="0 0 0 0 0 0 0 0 0 0 0 0 0 0 0 0 0 0 0.15 0"/>
<feBlend mode="normal" in2="effect1_backgroundBlur_240_1700" result="effect2_dropShadow_240_1700"/>
<feBlend mode="normal" in="SourceGraphic" in2="effect2_dropShadow_240_1700" result="shape"/>
</filter>
<filter id="filter8_bd_240_1700" x="202.338" y="1323.34" width="214.324" height="214.324" filterUnits="userSpaceOnUse" color-interpolation-filters="sRGB">
<feFlood flood-opacity="0" result="BackgroundImageFix"/>
<feGaussianBlur in="BackgroundImageFix" stdDeviation="5"/>
<feComposite in2="SourceAlpha" operator="in" result="effect1_backgroundBlur_240_1700"/>
<feColorMatrix in="SourceAlpha" type="matrix" values="0 0 0 0 0 0 0 0 0 0 0 0 0 0 0 0 0 0 127 0" result="hardAlpha"/>
<feOffset/>
<feGaussianBlur stdDeviation="30"/>
<feComposite in2="hardAlpha" operator="out"/>
<feColorMatrix type="matrix" values="0 0 0 0 0 0 0 0 0 0 0 0 0 0 0 0 0 0 0.15 0"/>
<feBlend mode="normal" in2="effect1_backgroundBlur_240_1700" result="effect2_dropShadow_240_1700"/>
<feBlend mode="normal" in="SourceGraphic" in2="effect2_dropShadow_240_1700" result="shape"/>
</filter>
<filter id="filter9_bd_240_1700" x="199.5" y="1320.5" width="220" height="220" filterUnits="userSpaceOnUse" color-interpolation-filters="sRGB">
<feFlood flood-opacity="0" result="BackgroundImageFix"/>
<feGaussianBlur in="BackgroundImageFix" stdDeviation="5"/>
<feComposite in2="SourceAlpha" operator="in" result="effect1_backgroundBlur_240_1700"/>
<feColorMatrix in="SourceAlpha" type="matrix" values="0 0 0 0 0 0 0 0 0 0 0 0 0 0 0 0 0 0 127 0" result="hardAlpha"/>
<feOffset/>
<feGaussianBlur stdDeviation="30"/>
<feComposite in2="hardAlpha" operator="out"/>
<feColorMatrix type="matrix" values="0 0 0 0 0 0 0 0 0 0 0 0 0 0 0 0 0 0 0.15 0"/>
<feBlend mode="normal" in2="effect1_backgroundBlur_240_1700" result="effect2_dropShadow_240_1700"/>
<feBlend mode="normal" in="SourceGraphic" in2="effect2_dropShadow_240_1700" result="shape"/>
</filter>
<filter id="filter10_bd_240_1700" x="922.338" y="1432.34" width="214.324" height="214.324" filterUnits="userSpaceOnUse" color-interpolation-filters="sRGB">
<feFlood flood-opacity="0" result="BackgroundImageFix"/>
<feGaussianBlur in="BackgroundImageFix" stdDeviation="5"/>
<feComposite in2="SourceAlpha" operator="in" result="effect1_backgroundBlur_240_1700"/>
<feColorMatrix in="SourceAlpha" type="matrix" values="0 0 0 0 0 0 0 0 0 0 0 0 0 0 0 0 0 0 127 0" result="hardAlpha"/>
<feOffset/>
<feGaussianBlur stdDeviation="30"/>
<feComposite in2="hardAlpha" operator="out"/>
<feColorMatrix type="matrix" values="0 0 0 0 0 0 0 0 0 0 0 0 0 0 0 0 0 0 0.15 0"/>
<feBlend mode="normal" in2="effect1_backgroundBlur_240_1700" result="effect2_dropShadow_240_1700"/>
<feBlend mode="normal" in="SourceGraphic" in2="effect2_dropShadow_240_1700" result="shape"/>
</filter>
<filter id="filter11_bd_240_1700" x="919.5" y="1429.5" width="220" height="220" filterUnits="userSpaceOnUse" color-interpolation-filters="sRGB">
<feFlood flood-opacity="0" result="BackgroundImageFix"/>
<feGaussianBlur in="BackgroundImageFix" stdDeviation="5"/>
<feComposite in2="SourceAlpha" operator="in" result="effect1_backgroundBlur_240_1700"/>
<feColorMatrix in="SourceAlpha" type="matrix" values="0 0 0 0 0 0 0 0 0 0 0 0 0 0 0 0 0 0 127 0" result="hardAlpha"/>
<feOffset/>
<feGaussianBlur stdDeviation="30"/>
<feComposite in2="hardAlpha" operator="out"/>
<feColorMatrix type="matrix" values="0 0 0 0 0 0 0 0 0 0 0 0 0 0 0 0 0 0 0.15 0"/>
<feBlend mode="normal" in2="effect1_backgroundBlur_240_1700" result="effect2_dropShadow_240_1700"/>
<feBlend mode="normal" in="SourceGraphic" in2="effect2_dropShadow_240_1700" result="shape"/>
</filter>
<linearGradient id="paint0_linear_240_1700" x1="627.093" y1="65.5" x2="627.093" y2="1332.03" gradientUnits="userSpaceOnUse">
<stop stop-color="white" stop-opacity="0"/>
<stop offset="1" stop-color="white"/>
</linearGradient>
<linearGradient id="paint1_linear_240_1700" x1="167.5" y1="392.338" x2="167.5" y2="486.662" gradientUnits="userSpaceOnUse">
<stop stop-color="white" stop-opacity="0.3"/>
<stop offset="1" stop-color="white" stop-opacity="0.1"/>
</linearGradient>
<linearGradient id="paint2_linear_240_1700" x1="910.5" y1="392.338" x2="910.5" y2="486.662" gradientUnits="userSpaceOnUse">
<stop stop-color="white" stop-opacity="0.3"/>
<stop offset="1" stop-color="white" stop-opacity="0.1"/>
</linearGradient>
<linearGradient id="paint3_linear_240_1700" x1="990.5" y1="792.338" x2="990.5" y2="886.662" gradientUnits="userSpaceOnUse">
<stop stop-color="white" stop-opacity="0.3"/>
<stop offset="1" stop-color="white" stop-opacity="0.1"/>
</linearGradient>
<linearGradient id="paint4_linear_240_1700" x1="289.5" y1="909.338" x2="289.5" y2="1003.66" gradientUnits="userSpaceOnUse">
<stop stop-color="white" stop-opacity="0.3"/>
<stop offset="1" stop-color="white" stop-opacity="0.1"/>
</linearGradient>
<linearGradient id="paint5_linear_240_1700" x1="309.5" y1="1383.34" x2="309.5" y2="1477.66" gradientUnits="userSpaceOnUse">
<stop stop-color="white" stop-opacity="0.3"/>
<stop offset="1" stop-color="white" stop-opacity="0.1"/>
</linearGradient>
<linearGradient id="paint6_linear_240_1700" x1="1029.5" y1="1492.34" x2="1029.5" y2="1586.66" gradientUnits="userSpaceOnUse">
<stop stop-color="white" stop-opacity="0.3"/>
<stop offset="1" stop-color="white" stop-opacity="0.1"/>
</linearGradient>
</defs>
</svg>
